STARTFONT 2.1
COMMENT
COMMENT Converted from OpenType font "BeVietnam-Italic.ttf" by "otf2bdf 3.0".
COMMENT
FONT -FreeType-Be Vietnam-Medium-I-Normal--17-120-100-100-P-87-ISO10646-1
SIZE 12 100 100
FONTBOUNDINGBOX 24 22 -4 -4
STARTPROPERTIES 19
FOUNDRY "FreeType"
FAMILY_NAME "Be Vietnam"
WEIGHT_NAME "Medium"
SLANT "I"
SETWIDTH_NAME "Normal"
ADD_STYLE_NAME ""
PIXEL_SIZE 17
POINT_SIZE 120
RESOLUTION_X 100
RESOLUTION_Y 100
SPACING "P"
AVERAGE_WIDTH 87
CHARSET_REGISTRY "ISO10646"
CHARSET_ENCODING "1"
FONT_ASCENT 20
FONT_DESCENT 4
COPYRIGHT "Copyright 2019 The Bevietnam Project Authors (https://github.com/bettergui/beVietnam)"
_OTF_FONTFILE "BeVietnam-Italic.ttf"
_OTF_PSNAME "BeVietnam-Italic"
ENDPROPERTIES
CHARS 445
STARTCHAR 000D
ENCODING 13
SWIDTH 600 0
DWIDTH 10 0
BBX 0 0 0 0
BITMAP
ENDCHAR
STARTCHAR 0020
ENCODING 32
SWIDTH 180 0
DWIDTH 3 0
BBX 0 0 0 0
BITMAP
ENDCHAR
STARTCHAR 0021
ENCODING 33
SWIDTH 240 0
DWIDTH 4 0
BBX 4 13 1 0
BITMAP
30
30
30
20
20
20
60
60
40
40
00
40
C0
ENDCHAR
STARTCHAR 0022
ENCODING 34
SWIDTH 540 0
DWIDTH 9 0
BBX 5 4 3 8
BITMAP
C8
90
D8
D8
ENDCHAR
STARTCHAR 0023
ENCODING 35
SWIDTH 840 0
DWIDTH 14 0
BBX 12 12 2 0
BITMAP
0220
0620
0460
0440
7FF0
0880
1880
1180
FFE0
3100
2200
2200
ENDCHAR
STARTCHAR 0024
ENCODING 36
SWIDTH 540 0
DWIDTH 9 0
BBX 9 13 1 0
BITMAP
0600
1F00
2580
6480
6800
3800
1F00
0900
C900
C900
7300
3C00
1000
ENDCHAR
STARTCHAR 0025
ENCODING 37
SWIDTH 780 0
DWIDTH 13 0
BBX 12 12 2 0
BITMAP
3040
48C0
8880
9100
6300
0200
0400
0C60
08B0
1110
3120
21E0
ENDCHAR
STARTCHAR 0026
ENCODING 38
SWIDTH 600 0
DWIDTH 10 0
BBX 10 12 1 0
BITMAP
0700
0D80
1880
1080
1800
0800
3CC0
6780
4300
C300
C580
78C0
ENDCHAR
STARTCHAR 0027
ENCODING 39
SWIDTH 300 0
DWIDTH 5 0
BBX 3 4 2 8
BITMAP
60
20
40
80
ENDCHAR
STARTCHAR 0028
ENCODING 40
SWIDTH 420 0
DWIDTH 7 0
BBX 5 16 3 -4
BITMAP
08
10
30
20
40
C0
C0
80
80
80
80
80
80
80
40
40
ENDCHAR
STARTCHAR 0029
ENCODING 41
SWIDTH 420 0
DWIDTH 7 0
BBX 5 16 2 -4
BITMAP
20
30
10
10
18
18
18
18
18
10
10
30
20
60
40
80
ENDCHAR
STARTCHAR 002A
ENCODING 42
SWIDTH 420 0
DWIDTH 7 0
BBX 6 6 3 7
BITMAP
10
14
68
30
E8
20
ENDCHAR
STARTCHAR 002B
ENCODING 43
SWIDTH 540 0
DWIDTH 9 0
BBX 7 6 2 2
BITMAP
18
18
FE
10
10
10
ENDCHAR
STARTCHAR 002C
ENCODING 44
SWIDTH 240 0
DWIDTH 4 0
BBX 3 5 1 -3
BITMAP
40
E0
40
40
80
ENDCHAR
STARTCHAR 002D
ENCODING 45
SWIDTH 600 0
DWIDTH 10 0
BBX 6 1 4 5
BITMAP
FC
ENDCHAR
STARTCHAR 002E
ENCODING 46
SWIDTH 240 0
DWIDTH 4 0
BBX 2 2 1 0
BITMAP
40
C0
ENDCHAR
STARTCHAR 002F
ENCODING 47
SWIDTH 480 0
DWIDTH 8 0
BBX 11 16 0 -3
BITMAP
0060
0040
0080
0180
0100
0300
0200
0400
0C00
0800
1800
1000
2000
6000
4000
C000
ENDCHAR
STARTCHAR 0030
ENCODING 48
SWIDTH 600 0
DWIDTH 10 0
BBX 8 12 2 0
BITMAP
1E
33
61
C1
C1
C1
81
83
83
82
C6
78
ENDCHAR
STARTCHAR 0031
ENCODING 49
SWIDTH 480 0
DWIDTH 8 0
BBX 6 12 2 0
BITMAP
08
38
68
58
18
10
10
10
10
30
30
FC
ENDCHAR
STARTCHAR 0032
ENCODING 50
SWIDTH 540 0
DWIDTH 9 0
BBX 9 12 1 0
BITMAP
0F00
1980
3080
2080
0080
0100
0300
0400
1800
3000
6000
FF00
ENDCHAR
STARTCHAR 0033
ENCODING 51
SWIDTH 540 0
DWIDTH 9 0
BBX 8 12 2 0
BITMAP
1E
33
41
01
03
1E
1E
02
02
82
C6
7C
ENDCHAR
STARTCHAR 0034
ENCODING 52
SWIDTH 600 0
DWIDTH 10 0
BBX 9 12 1 0
BITMAP
0180
0300
0500
0D00
1B00
3300
2200
4200
FF80
0200
0600
0600
ENDCHAR
STARTCHAR 0035
ENCODING 53
SWIDTH 600 0
DWIDTH 10 0
BBX 8 12 2 0
BITMAP
3F
7F
60
40
5E
63
C3
03
03
82
C6
78
ENDCHAR
STARTCHAR 0036
ENCODING 54
SWIDTH 540 0
DWIDTH 9 0
BBX 8 12 2 0
BITMAP
04
08
10
30
60
7E
C2
83
82
82
C6
78
ENDCHAR
STARTCHAR 0037
ENCODING 55
SWIDTH 480 0
DWIDTH 8 0
BBX 8 12 2 0
BITMAP
FF
FF
02
06
0C
08
18
10
30
60
40
C0
ENDCHAR
STARTCHAR 0038
ENCODING 56
SWIDTH 600 0
DWIDTH 10 0
BBX 9 12 1 0
BITMAP
0F00
1980
3080
2080
2180
1F00
3300
4180
4180
C180
6300
3E00
ENDCHAR
STARTCHAR 0039
ENCODING 57
SWIDTH 540 0
DWIDTH 9 0
BBX 8 12 2 0
BITMAP
1E
33
41
C1
C1
C3
66
3E
04
08
10
30
ENDCHAR
STARTCHAR 003A
ENCODING 58
SWIDTH 240 0
DWIDTH 4 0
BBX 2 9 1 0
BITMAP
40
C0
00
00
00
00
00
40
C0
ENDCHAR
STARTCHAR 003B
ENCODING 59
SWIDTH 300 0
DWIDTH 5 0
BBX 4 12 1 -3
BITMAP
20
30
00
00
00
00
00
60
60
20
40
80
ENDCHAR
STARTCHAR 003C
ENCODING 60
SWIDTH 540 0
DWIDTH 9 0
BBX 6 7 3 2
BITMAP
04
18
60
80
E0
30
08
ENDCHAR
STARTCHAR 003D
ENCODING 61
SWIDTH 660 0
DWIDTH 11 0
BBX 8 5 3 3
BITMAP
FF
FF
00
00
FE
ENDCHAR
STARTCHAR 003E
ENCODING 62
SWIDTH 540 0
DWIDTH 9 0
BBX 7 7 2 2
BITMAP
60
30
1C
06
1C
70
C0
ENDCHAR
STARTCHAR 003F
ENCODING 63
SWIDTH 540 0
DWIDTH 9 0
BBX 7 12 3 0
BITMAP
3C
EE
82
82
06
0C
18
30
20
00
60
60
ENDCHAR
STARTCHAR 0040
ENCODING 64
SWIDTH 960 0
DWIDTH 16 0
BBX 15 15 2 -3
BITMAP
03E0
0C38
100C
2004
47C6
CCC2
8846
8844
88C4
8948
8E70
C000
6000
3800
0FE0
ENDCHAR
STARTCHAR 0041
ENCODING 65
SWIDTH 660 0
DWIDTH 11 0
BBX 10 12 1 0
BITMAP
0200
0700
0700
0D00
0900
1900
1180
3F80
3F80
4080
C080
80C0
ENDCHAR
STARTCHAR 0042
ENCODING 66
SWIDTH 600 0
DWIDTH 10 0
BBX 10 12 1 0
BITMAP
3F00
3F80
20C0
20C0
2080
7F00
7F80
4080
4080
4080
4300
FE00
ENDCHAR
STARTCHAR 0043
ENCODING 67
SWIDTH 660 0
DWIDTH 11 0
BBX 10 12 2 0
BITMAP
0F00
39C0
60C0
4040
C000
C000
8000
8000
80C0
C180
6300
3E00
ENDCHAR
STARTCHAR 0044
ENCODING 68
SWIDTH 660 0
DWIDTH 11 0
BBX 11 12 1 0
BITMAP
3F00
3FC0
20C0
2060
2060
6060
6060
4040
40C0
4080
4300
FE00
ENDCHAR
STARTCHAR 0045
ENCODING 69
SWIDTH 540 0
DWIDTH 9 0
BBX 9 12 1 0
BITMAP
3F80
3F80
2000
2000
2000
7F00
7F00
4000
4000
4000
4000
FF00
ENDCHAR
STARTCHAR 0046
ENCODING 70
SWIDTH 480 0
DWIDTH 8 0
BBX 9 12 1 0
BITMAP
3F80
3F80
2000
2000
2000
7F00
7F00
4000
4000
4000
4000
C000
ENDCHAR
STARTCHAR 0047
ENCODING 71
SWIDTH 660 0
DWIDTH 11 0
BBX 10 12 2 0
BITMAP
0F00
3980
60C0
4040
C000
8000
87C0
80C0
8080
C180
6380
3C80
ENDCHAR
STARTCHAR 0048
ENCODING 72
SWIDTH 660 0
DWIDTH 11 0
BBX 11 12 1 0
BITMAP
3020
2060
2060
2060
2040
6040
7FC0
40C0
40C0
4080
4080
C080
ENDCHAR
STARTCHAR 0049
ENCODING 73
SWIDTH 240 0
DWIDTH 4 0
BBX 4 12 1 0
BITMAP
30
30
20
20
20
60
60
60
40
40
40
C0
ENDCHAR
STARTCHAR 004A
ENCODING 74
SWIDTH 300 0
DWIDTH 5 0
BBX 5 12 1 0
BITMAP
08
08
08
18
18
10
10
10
10
30
30
E0
ENDCHAR
STARTCHAR 004B
ENCODING 75
SWIDTH 600 0
DWIDTH 10 0
BBX 10 12 1 0
BITMAP
30C0
2180
2300
2600
6C00
7800
6800
4C00
4400
4600
C300
C300
ENDCHAR
STARTCHAR 004C
ENCODING 76
SWIDTH 480 0
DWIDTH 8 0
BBX 7 12 1 0
BITMAP
30
20
20
20
20
60
60
40
40
40
40
FE
ENDCHAR
STARTCHAR 004D
ENCODING 77
SWIDTH 780 0
DWIDTH 13 0
BBX 13 12 1 0
BITMAP
3018
3818
3838
2828
2878
68D8
6C90
4D90
4510
4730
4630
C630
ENDCHAR
STARTCHAR 004E
ENCODING 78
SWIDTH 660 0
DWIDTH 11 0
BBX 12 12 1 0
BITMAP
3030
3020
3820
2820
2C60
6460
6660
4240
4340
4140
41C0
C0C0
ENDCHAR
STARTCHAR 004F
ENCODING 79
SWIDTH 720 0
DWIDTH 12 0
BBX 10 12 2 0
BITMAP
0F00
39C0
60C0
4040
C040
8040
8040
80C0
80C0
C180
6300
3E00
ENDCHAR
STARTCHAR 0050
ENCODING 80
SWIDTH 540 0
DWIDTH 9 0
BBX 10 12 1 0
BITMAP
3F00
3F80
20C0
20C0
20C0
6080
6300
7E00
4000
4000
4000
C000
ENDCHAR
STARTCHAR 0051
ENCODING 81
SWIDTH 720 0
DWIDTH 12 0
BBX 10 13 2 -1
BITMAP
0F00
39C0
60C0
4040
C040
8040
8040
80C0
84C0
C780
6300
3F00
0180
ENDCHAR
STARTCHAR 0052
ENCODING 82
SWIDTH 600 0
DWIDTH 10 0
BBX 10 12 1 0
BITMAP
3F00
3F80
20C0
20C0
2080
6180
7F00
4400
4600
4200
4300
C100
ENDCHAR
STARTCHAR 0053
ENCODING 83
SWIDTH 540 0
DWIDTH 9 0
BBX 10 12 1 0
BITMAP
0F00
1980
2080
20C0
2000
3C00
0F00
0180
C180
C180
6300
3E00
ENDCHAR
STARTCHAR 0054
ENCODING 84
SWIDTH 540 0
DWIDTH 9 0
BBX 8 12 3 0
BITMAP
FF
FF
10
10
30
30
30
20
20
20
60
60
ENDCHAR
STARTCHAR 0055
ENCODING 85
SWIDTH 660 0
DWIDTH 11 0
BBX 10 12 2 0
BITMAP
4040
4040
4040
40C0
C0C0
C080
8080
8080
8180
C100
E700
7C00
ENDCHAR
STARTCHAR 0056
ENCODING 86
SWIDTH 600 0
DWIDTH 10 0
BBX 10 12 2 0
BITMAP
C040
C0C0
4080
4180
4100
6300
6200
6600
2400
2C00
2800
3800
ENDCHAR
STARTCHAR 0057
ENCODING 87
SWIDTH 960 0
DWIDTH 16 0
BBX 16 12 2 0
BITMAP
C081
C183
C182
4286
42C4
44C4
44CC
4848
4858
5850
7070
7060
ENDCHAR
STARTCHAR 0058
ENCODING 88
SWIDTH 600 0
DWIDTH 10 0
BBX 11 12 1 0
BITMAP
2020
3040
10C0
1980
0B00
0E00
0E00
1A00
1300
2100
6180
C180
ENDCHAR
STARTCHAR 0059
ENCODING 89
SWIDTH 600 0
DWIDTH 10 0
BBX 8 12 3 0
BITMAP
81
C3
C2
44
4C
68
30
30
20
20
20
60
ENDCHAR
STARTCHAR 005A
ENCODING 90
SWIDTH 600 0
DWIDTH 10 0
BBX 10 12 1 0
BITMAP
3FC0
3FC0
0180
0100
0200
0400
0C00
1800
3000
6000
C000
FF00
ENDCHAR
STARTCHAR 005B
ENCODING 91
SWIDTH 420 0
DWIDTH 7 0
BBX 7 17 1 -3
BITMAP
1E
1E
30
20
20
20
20
60
40
40
40
40
40
C0
80
80
F8
ENDCHAR
STARTCHAR 005C
ENCODING 92
SWIDTH 480 0
DWIDTH 8 0
BBX 5 16 2 -3
BITMAP
80
C0
40
40
40
60
20
20
30
30
10
10
18
18
08
08
ENDCHAR
STARTCHAR 005D
ENCODING 93
SWIDTH 420 0
DWIDTH 7 0
BBX 7 17 1 -3
BITMAP
1E
3E
02
02
06
04
04
04
04
04
0C
08
08
08
08
08
F0
ENDCHAR
STARTCHAR 005E
ENCODING 94
SWIDTH 360 0
DWIDTH 6 0
BBX 6 4 2 9
BITMAP
10
28
4C
84
ENDCHAR
STARTCHAR 005F
ENCODING 95
SWIDTH 660 0
DWIDTH 11 0
BBX 8 1 2 0
BITMAP
FF
ENDCHAR
STARTCHAR 0060
ENCODING 96
SWIDTH 240 0
DWIDTH 4 0
BBX 2 3 3 10
BITMAP
C0
40
40
ENDCHAR
STARTCHAR 0061
ENCODING 97
SWIDTH 600 0
DWIDTH 10 0
BBX 9 9 1 0
BITMAP
1E80
3280
6180
4180
C180
C180
C300
6500
7900
ENDCHAR
STARTCHAR 0062
ENCODING 98
SWIDTH 600 0
DWIDTH 10 0
BBX 9 13 1 0
BITMAP
3000
3000
2000
2000
2F00
3980
6080
6080
4080
4080
6180
E300
DE00
ENDCHAR
STARTCHAR 0063
ENCODING 99
SWIDTH 540 0
DWIDTH 9 0
BBX 9 9 1 0
BITMAP
1E00
3300
6180
4000
C000
C000
C300
6600
3C00
ENDCHAR
STARTCHAR 0064
ENCODING 100
SWIDTH 600 0
DWIDTH 10 0
BBX 10 13 1 0
BITMAP
0040
00C0
00C0
00C0
1E80
3280
6180
4180
C180
C180
C300
6500
7900
ENDCHAR
STARTCHAR 0065
ENCODING 101
SWIDTH 540 0
DWIDTH 9 0
BBX 9 9 1 0
BITMAP
1F00
3100
6180
4100
FE00
C000
C300
6600
3C00
ENDCHAR
STARTCHAR 0066
ENCODING 102
SWIDTH 360 0
DWIDTH 6 0
BBX 8 16 -1 -4
BITMAP
07
04
04
1F
0C
0C
08
08
08
18
18
18
10
10
30
E0
ENDCHAR
STARTCHAR 0067
ENCODING 103
SWIDTH 600 0
DWIDTH 10 0
BBX 9 13 1 -4
BITMAP
1E80
3280
6180
4180
C180
C180
C300
6500
3900
0300
0200
3C00
1000
ENDCHAR
STARTCHAR 0068
ENCODING 104
SWIDTH 600 0
DWIDTH 10 0
BBX 9 12 1 0
BITMAP
3000
2000
2000
2F00
3180
6180
6080
4180
4180
4100
4100
C100
ENDCHAR
STARTCHAR 0069
ENCODING 105
SWIDTH 240 0
DWIDTH 4 0
BBX 4 12 1 0
BITMAP
30
20
00
20
20
60
60
60
40
40
40
C0
ENDCHAR
STARTCHAR 006A
ENCODING 106
SWIDTH 240 0
DWIDTH 4 0
BBX 6 16 -1 -4
BITMAP
0C
00
00
08
08
08
18
18
10
10
10
10
30
30
60
C0
ENDCHAR
STARTCHAR 006B
ENCODING 107
SWIDTH 480 0
DWIDTH 8 0
BBX 8 12 1 0
BITMAP
30
30
20
23
26
6C
78
70
58
48
4C
C6
ENDCHAR
STARTCHAR 006C
ENCODING 108
SWIDTH 300 0
DWIDTH 5 0
BBX 3 13 2 0
BITMAP
60
60
60
40
40
40
C0
C0
C0
80
80
80
E0
ENDCHAR
STARTCHAR 006D
ENCODING 109
SWIDTH 900 0
DWIDTH 15 0
BBX 15 9 1 0
BITMAP
2F3C
334E
6186
6186
4186
4104
4104
4104
C304
ENDCHAR
STARTCHAR 006E
ENCODING 110
SWIDTH 600 0
DWIDTH 10 0
BBX 9 9 1 0
BITMAP
2F00
3180
6180
6080
4180
4180
4100
4100
C100
ENDCHAR
STARTCHAR 006F
ENCODING 111
SWIDTH 540 0
DWIDTH 9 0
BBX 9 9 1 0
BITMAP
1E00
3300
6180
4180
C180
C100
C300
6600
3C00
ENDCHAR
STARTCHAR 0070
ENCODING 112
SWIDTH 600 0
DWIDTH 10 0
BBX 9 12 1 -3
BITMAP
2F00
3980
6080
6080
4080
4080
6180
E300
DE00
C000
8000
8000
ENDCHAR
STARTCHAR 0071
ENCODING 113
SWIDTH 600 0
DWIDTH 10 0
BBX 9 12 1 -3
BITMAP
1E80
3280
6180
4180
C180
C180
C300
6500
7900
0300
0300
0200
ENDCHAR
STARTCHAR 0072
ENCODING 114
SWIDTH 300 0
DWIDTH 5 0
BBX 6 9 1 0
BITMAP
2C
7C
60
60
40
40
40
C0
C0
ENDCHAR
STARTCHAR 0073
ENCODING 115
SWIDTH 480 0
DWIDTH 8 0
BBX 8 9 1 0
BITMAP
1E
62
43
60
3C
06
C2
C6
7C
ENDCHAR
STARTCHAR 0074
ENCODING 116
SWIDTH 360 0
DWIDTH 6 0
BBX 5 12 2 0
BITMAP
30
20
20
F8
60
60
60
40
40
40
C0
70
ENDCHAR
STARTCHAR 0075
ENCODING 117
SWIDTH 600 0
DWIDTH 10 0
BBX 8 9 2 0
BITMAP
41
C1
C1
C3
83
82
82
CE
76
ENDCHAR
STARTCHAR 0076
ENCODING 118
SWIDTH 540 0
DWIDTH 9 0
BBX 8 9 2 0
BITMAP
81
C3
C2
44
4C
48
78
70
30
ENDCHAR
STARTCHAR 0077
ENCODING 119
SWIDTH 780 0
DWIDTH 13 0
BBX 12 9 2 0
BITMAP
8210
C610
C630
CA20
4B60
5340
51C0
7180
6180
ENDCHAR
STARTCHAR 0078
ENCODING 120
SWIDTH 540 0
DWIDTH 9 0
BBX 9 9 1 0
BITMAP
6180
2300
3600
1400
1800
3C00
2400
4600
C600
ENDCHAR
STARTCHAR 0079
ENCODING 121
SWIDTH 480 0
DWIDTH 8 0
BBX 10 12 0 -3
BITMAP
20C0
2080
3100
3300
1200
1600
1400
1C00
1800
1000
3000
E000
ENDCHAR
STARTCHAR 007A
ENCODING 122
SWIDTH 480 0
DWIDTH 8 0
BBX 8 9 1 0
BITMAP
3F
03
06
0C
18
30
60
C0
FE
ENDCHAR
STARTCHAR 007B
ENCODING 123
SWIDTH 420 0
DWIDTH 7 0
BBX 6 18 3 -4
BITMAP
1C
30
20
20
20
60
60
40
C0
40
40
C0
C0
80
80
80
C0
60
ENDCHAR
STARTCHAR 007C
ENCODING 124
SWIDTH 240 0
DWIDTH 4 0
BBX 5 20 1 -4
BITMAP
18
10
10
10
10
10
30
20
20
20
20
20
60
40
40
40
40
40
C0
80
ENDCHAR
STARTCHAR 007D
ENCODING 125
SWIDTH 420 0
DWIDTH 7 0
BBX 7 18 1 -4
BITMAP
1C
06
06
06
04
04
04
04
06
0C
08
08
08
18
18
10
30
E0
ENDCHAR
STARTCHAR 007E
ENCODING 126
SWIDTH 540 0
DWIDTH 9 0
BBX 6 1 3 5
BITMAP
FC
ENDCHAR
STARTCHAR 00A0
ENCODING 160
SWIDTH 180 0
DWIDTH 3 0
BBX 0 0 0 0
BITMAP
ENDCHAR
STARTCHAR 00A1
ENCODING 161
SWIDTH 240 0
DWIDTH 4 0
BBX 4 12 1 -3
BITMAP
30
00
00
20
20
20
60
40
40
40
40
C0
ENDCHAR
STARTCHAR 00A2
ENCODING 162
SWIDTH 600 0
DWIDTH 10 0
BBX 8 11 2 -1
BITMAP
08
3E
72
D3
90
90
90
92
E4
78
20
ENDCHAR
STARTCHAR 00A3
ENCODING 163
SWIDTH 540 0
DWIDTH 9 0
BBX 9 12 1 0
BITMAP
0F00
1980
3080
2080
2000
3000
1000
7E00
1000
3000
6000
FF00
ENDCHAR
STARTCHAR 00A4
ENCODING 164
SWIDTH 540 0
DWIDTH 9 0
BBX 8 8 2 2
BITMAP
49
7E
42
C3
82
C2
EE
B2
ENDCHAR
STARTCHAR 00A5
ENCODING 165
SWIDTH 600 0
DWIDTH 10 0
BBX 10 12 2 0
BITMAP
40C0
6180
6100
2200
2600
3400
1800
7E00
1000
FE00
1000
3000
ENDCHAR
STARTCHAR 00A6
ENCODING 166
SWIDTH 240 0
DWIDTH 4 0
BBX 5 20 1 -4
BITMAP
18
10
10
10
10
10
30
20
20
00
00
00
60
40
40
40
40
40
C0
80
ENDCHAR
STARTCHAR 00A7
ENCODING 167
SWIDTH 540 0
DWIDTH 9 0
BBX 8 12 1 0
BITMAP
0E
33
21
30
3F
41
41
3F
06
C2
46
7C
ENDCHAR
STARTCHAR 00A8
ENCODING 168
SWIDTH 360 0
DWIDTH 6 0
BBX 5 2 3 10
BITMAP
98
90
ENDCHAR
STARTCHAR 00A9
ENCODING 169
SWIDTH 780 0
DWIDTH 13 0
BBX 12 12 2 0
BITMAP
0F80
1060
6020
4F90
9090
9010
A010
A0A0
9120
8E40
4080
3F00
ENDCHAR
STARTCHAR 00AA
ENCODING 170
SWIDTH 120 0
DWIDTH 2 0
BBX 3 3 1 6
BITMAP
60
A0
40
ENDCHAR
STARTCHAR 00AB
ENCODING 171
SWIDTH 600 0
DWIDTH 10 0
BBX 9 7 2 2
BITMAP
1880
3100
4600
8C00
C400
4600
2300
ENDCHAR
STARTCHAR 00AC
ENCODING 172
SWIDTH 600 0
DWIDTH 10 0
BBX 8 4 3 5
BITMAP
FF
01
01
03
ENDCHAR
STARTCHAR 00AD
ENCODING 173
SWIDTH 600 0
DWIDTH 10 0
BBX 6 1 4 5
BITMAP
FC
ENDCHAR
STARTCHAR 00AE
ENCODING 174
SWIDTH 300 0
DWIDTH 5 0
BBX 5 5 2 7
BITMAP
30
F0
A8
90
60
ENDCHAR
STARTCHAR 00AF
ENCODING 175
SWIDTH 360 0
DWIDTH 6 0
BBX 5 1 2 11
BITMAP
F8
ENDCHAR
STARTCHAR 00B0
ENCODING 176
SWIDTH 300 0
DWIDTH 5 0
BBX 3 3 3 11
BITMAP
E0
A0
40
ENDCHAR
STARTCHAR 00B1
ENCODING 177
SWIDTH 600 0
DWIDTH 10 0
BBX 7 9 2 0
BITMAP
08
08
08
7E
10
10
00
00
FC
ENDCHAR
STARTCHAR 00B2
ENCODING 178
SWIDTH 300 0
DWIDTH 5 0
BBX 4 7 2 6
BITMAP
30
50
10
10
60
80
F0
ENDCHAR
STARTCHAR 00B3
ENCODING 179
SWIDTH 300 0
DWIDTH 5 0
BBX 5 7 2 6
BITMAP
30
48
10
20
10
90
60
ENDCHAR
STARTCHAR 00B4
ENCODING 180
SWIDTH 240 0
DWIDTH 4 0
BBX 3 3 2 10
BITMAP
20
40
C0
ENDCHAR
STARTCHAR 00B5
ENCODING 181
SWIDTH 600 0
DWIDTH 10 0
BBX 9 12 1 -3
BITMAP
2180
6180
6100
6100
4100
4300
4300
C700
FB80
8000
8000
8000
ENDCHAR
STARTCHAR 00B6
ENCODING 182
SWIDTH 480 0
DWIDTH 8 0
BBX 8 12 2 0
BITMAP
3F
7F
FA
FA
FA
FA
0A
14
14
14
14
14
ENDCHAR
STARTCHAR 00B7
ENCODING 183
SWIDTH 240 0
DWIDTH 4 0
BBX 2 2 3 5
BITMAP
C0
80
ENDCHAR
STARTCHAR 00B8
ENCODING 184
SWIDTH 240 0
DWIDTH 4 0
BBX 3 4 0 -4
BITMAP
40
E0
20
E0
ENDCHAR
STARTCHAR 00B9
ENCODING 185
SWIDTH 240 0
DWIDTH 4 0
BBX 3 7 2 6
BITMAP
20
E0
40
40
40
40
E0
ENDCHAR
STARTCHAR 00BA
ENCODING 186
SWIDTH 120 0
DWIDTH 2 0
BBX 3 3 1 6
BITMAP
60
A0
40
ENDCHAR
STARTCHAR 00BB
ENCODING 187
SWIDTH 600 0
DWIDTH 10 0
BBX 9 7 2 2
BITMAP
C400
6200
2300
1180
3300
4600
8C00
ENDCHAR
STARTCHAR 00BC
ENCODING 188
SWIDTH 780 0
DWIDTH 13 0
BBX 11 12 2 0
BITMAP
2020
E040
A080
4180
4100
E200
0420
0C60
18A0
1120
21E0
4040
ENDCHAR
STARTCHAR 00BD
ENCODING 189
SWIDTH 840 0
DWIDTH 14 0
BBX 12 12 2 0
BITMAP
2020
E060
A0C0
4080
4100
E200
0670
0490
0810
1020
30C0
61E0
ENDCHAR
STARTCHAR 00BE
ENCODING 190
SWIDTH 840 0
DWIDTH 14 0
BBX 12 12 2 0
BITMAP
3020
5860
1040
3080
1100
F300
0630
0460
08A0
1920
31F0
6020
ENDCHAR
STARTCHAR 00BF
ENCODING 191
SWIDTH 480 0
DWIDTH 8 0
BBX 8 12 1 -4
BITMAP
06
04
00
04
0C
18
20
40
C1
C3
66
7C
ENDCHAR
STARTCHAR 00C0
ENCODING 192
SWIDTH 660 0
DWIDTH 11 0
BBX 10 16 1 0
BITMAP
0400
0600
0200
0000
0200
0700
0700
0D00
0900
1900
1180
3F80
3F80
4080
C080
80C0
ENDCHAR
STARTCHAR 00C1
ENCODING 193
SWIDTH 660 0
DWIDTH 11 0
BBX 10 16 1 0
BITMAP
00C0
0180
0100
0000
0200
0700
0700
0D00
0900
1900
1180
3F80
3F80
4080
C080
80C0
ENDCHAR
STARTCHAR 00C2
ENCODING 194
SWIDTH 660 0
DWIDTH 11 0
BBX 10 15 1 0
BITMAP
0300
0480
0000
0200
0700
0700
0D00
0900
1900
1180
3F80
3F80
4080
C080
80C0
ENDCHAR
STARTCHAR 00C3
ENCODING 195
SWIDTH 660 0
DWIDTH 11 0
BBX 10 15 1 0
BITMAP
07C0
0800
0000
0200
0700
0700
0D00
0900
1900
1180
3F80
3F80
4080
C080
80C0
ENDCHAR
STARTCHAR 00C4
ENCODING 196
SWIDTH 660 0
DWIDTH 11 0
BBX 10 15 1 0
BITMAP
04C0
0480
0000
0200
0700
0700
0D00
0900
1900
1180
3F80
3F80
4080
C080
80C0
ENDCHAR
STARTCHAR 00C5
ENCODING 197
SWIDTH 660 0
DWIDTH 11 0
BBX 10 16 1 0
BITMAP
0300
0480
0300
0000
0200
0700
0700
0D00
0900
1900
1180
3F80
3F80
4080
C080
80C0
ENDCHAR
STARTCHAR 00C6
ENCODING 198
SWIDTH 900 0
DWIDTH 15 0
BBX 16 12 1 0
BITMAP
01FF
01FF
03C0
06C0
0480
0CFC
18FC
1F80
3F80
6180
C100
81FC
ENDCHAR
STARTCHAR 00C7
ENCODING 199
SWIDTH 660 0
DWIDTH 11 0
BBX 10 16 2 -4
BITMAP
0F00
39C0
60C0
4040
C000
C000
8000
8000
80C0
C180
6300
3E00
1000
1C00
0400
1800
ENDCHAR
STARTCHAR 00C8
ENCODING 200
SWIDTH 540 0
DWIDTH 9 0
BBX 9 16 1 0
BITMAP
0C00
0400
0400
0000
3F80
3F80
2000
2000
2000
7F00
7F00
4000
4000
4000
4000
FF00
ENDCHAR
STARTCHAR 00C9
ENCODING 201
SWIDTH 540 0
DWIDTH 9 0
BBX 9 16 1 0
BITMAP
0180
0100
0200
0000
3F80
3F80
2000
2000
2000
7F00
7F00
4000
4000
4000
4000
FF00
ENDCHAR
STARTCHAR 00CA
ENCODING 202
SWIDTH 540 0
DWIDTH 9 0
BBX 9 15 1 0
BITMAP
0700
0900
0000
3F80
3F80
2000
2000
2000
7F00
7F00
4000
4000
4000
4000
FF00
ENDCHAR
STARTCHAR 00CB
ENCODING 203
SWIDTH 540 0
DWIDTH 9 0
BBX 9 15 1 0
BITMAP
0D80
0900
0000
3F80
3F80
2000
2000
2000
7F00
7F00
4000
4000
4000
4000
FF00
ENDCHAR
STARTCHAR 00CC
ENCODING 204
SWIDTH 240 0
DWIDTH 4 0
BBX 4 16 1 0
BITMAP
60
20
30
00
30
30
20
20
20
60
60
60
40
40
40
C0
ENDCHAR
STARTCHAR 00CD
ENCODING 205
SWIDTH 240 0
DWIDTH 4 0
BBX 6 16 1 0
BITMAP
04
08
10
00
30
30
20
20
20
60
60
60
40
40
40
C0
ENDCHAR
STARTCHAR 00CE
ENCODING 206
SWIDTH 240 0
DWIDTH 4 0
BBX 6 15 1 0
BITMAP
38
6C
00
30
30
20
20
20
60
60
60
40
40
40
C0
ENDCHAR
STARTCHAR 00CF
ENCODING 207
SWIDTH 240 0
DWIDTH 4 0
BBX 6 15 1 0
BITMAP
6C
4C
00
30
30
20
20
20
60
60
60
40
40
40
C0
ENDCHAR
STARTCHAR 00D0
ENCODING 208
SWIDTH 660 0
DWIDTH 11 0
BBX 10 12 2 0
BITMAP
3E00
7F80
60C0
6040
4040
4040
F040
C0C0
C080
C180
8700
FC00
ENDCHAR
STARTCHAR 00D1
ENCODING 209
SWIDTH 660 0
DWIDTH 11 0
BBX 12 15 1 0
BITMAP
0740
0080
0000
3030
3020
3820
2820
2C60
6460
6660
4240
4340
4140
41C0
C0C0
ENDCHAR
STARTCHAR 00D2
ENCODING 210
SWIDTH 720 0
DWIDTH 12 0
BBX 10 16 2 0
BITMAP
0C00
0400
0600
0000
0F00
39C0
60C0
4040
C040
8040
8040
80C0
80C0
C180
6300
3E00
ENDCHAR
STARTCHAR 00D3
ENCODING 211
SWIDTH 720 0
DWIDTH 12 0
BBX 10 16 2 0
BITMAP
0080
0100
0200
0000
0F00
39C0
60C0
4040
C040
8040
8040
80C0
80C0
C180
6300
3E00
ENDCHAR
STARTCHAR 00D4
ENCODING 212
SWIDTH 720 0
DWIDTH 12 0
BBX 10 15 2 0
BITMAP
0700
0D80
0000
0F00
39C0
60C0
4040
C040
8040
8040
80C0
80C0
C180
6300
3E00
ENDCHAR
STARTCHAR 00D5
ENCODING 213
SWIDTH 720 0
DWIDTH 12 0
BBX 10 15 2 0
BITMAP
0E80
0900
0000
0F00
39C0
60C0
4040
C040
8040
8040
80C0
80C0
C180
6300
3E00
ENDCHAR
STARTCHAR 00D6
ENCODING 214
SWIDTH 720 0
DWIDTH 12 0
BBX 10 15 2 0
BITMAP
0D80
0880
0000
0F00
39C0
60C0
4040
C040
8040
8040
80C0
80C0
C180
6300
3E00
ENDCHAR
STARTCHAR 00D7
ENCODING 215
SWIDTH 540 0
DWIDTH 9 0
BBX 5 5 3 2
BITMAP
08
58
70
70
98
ENDCHAR
STARTCHAR 00D8
ENCODING 216
SWIDTH 720 0
DWIDTH 12 0
BBX 12 13 1 -1
BITMAP
07B0
1CE0
30E0
20A0
6130
6230
4620
4C20
4860
70C0
3180
7F00
C000
ENDCHAR
STARTCHAR 00D9
ENCODING 217
SWIDTH 660 0
DWIDTH 11 0
BBX 10 16 2 0
BITMAP
0800
0C00
0400
0000
4040
4040
4040
40C0
C0C0
C080
8080
8080
8180
C100
E700
7C00
ENDCHAR
STARTCHAR 00DA
ENCODING 218
SWIDTH 660 0
DWIDTH 11 0
BBX 10 16 2 0
BITMAP
0180
0100
0200
0000
4040
4040
4040
40C0
C0C0
C080
8080
8080
8180
C100
E700
7C00
ENDCHAR
STARTCHAR 00DB
ENCODING 219
SWIDTH 660 0
DWIDTH 11 0
BBX 10 15 2 0
BITMAP
0600
0900
0000
4040
4040
4040
40C0
C0C0
C080
8080
8080
8180
C100
E700
7C00
ENDCHAR
STARTCHAR 00DC
ENCODING 220
SWIDTH 660 0
DWIDTH 11 0
BBX 10 15 2 0
BITMAP
0980
0900
0000
4040
4040
4040
40C0
C0C0
C080
8080
8080
8180
C100
E700
7C00
ENDCHAR
STARTCHAR 00DD
ENCODING 221
SWIDTH 600 0
DWIDTH 10 0
BBX 8 16 3 0
BITMAP
02
04
08
00
81
C3
C2
44
4C
68
30
30
20
20
20
60
ENDCHAR
STARTCHAR 00DE
ENCODING 222
SWIDTH 540 0
DWIDTH 9 0
BBX 9 12 1 0
BITMAP
3000
2000
3E00
3F80
2080
6080
6080
4180
4300
7E00
4000
C000
ENDCHAR
STARTCHAR 00DF
ENCODING 223
SWIDTH 540 0
DWIDTH 9 0
BBX 9 12 1 0
BITMAP
0F00
1180
2180
2180
2100
6E00
6300
4100
4100
4100
C200
DC00
ENDCHAR
STARTCHAR 00E0
ENCODING 224
SWIDTH 600 0
DWIDTH 10 0
BBX 9 13 1 0
BITMAP
0800
0C00
0400
0000
1E80
3280
6180
4180
C180
C180
C300
6500
7900
ENDCHAR
STARTCHAR 00E1
ENCODING 225
SWIDTH 600 0
DWIDTH 10 0
BBX 9 13 1 0
BITMAP
0100
0300
0200
0000
1E80
3280
6180
4180
C180
C180
C300
6500
7900
ENDCHAR
STARTCHAR 00E2
ENCODING 226
SWIDTH 600 0
DWIDTH 10 0
BBX 9 12 1 0
BITMAP
0600
1900
0000
1E80
3280
6180
4180
C180
C180
C300
6500
7900
ENDCHAR
STARTCHAR 00E3
ENCODING 227
SWIDTH 600 0
DWIDTH 10 0
BBX 9 12 1 0
BITMAP
0F00
0000
0000
1E80
3280
6180
4180
C180
C180
C300
6500
7900
ENDCHAR
STARTCHAR 00E4
ENCODING 228
SWIDTH 600 0
DWIDTH 10 0
BBX 9 12 1 0
BITMAP
1980
0900
0000
1E80
3280
6180
4180
C180
C180
C300
6500
7900
ENDCHAR
STARTCHAR 00E5
ENCODING 229
SWIDTH 600 0
DWIDTH 10 0
BBX 9 13 1 0
BITMAP
0600
0A00
0600
0000
1E80
3280
6180
4180
C180
C180
C300
6500
7900
ENDCHAR
STARTCHAR 00E6
ENCODING 230
SWIDTH 900 0
DWIDTH 15 0
BBX 15 9 1 0
BITMAP
1E78
33C4
6186
0106
3FFE
4300
C304
C588
78F0
ENDCHAR
STARTCHAR 00E7
ENCODING 231
SWIDTH 540 0
DWIDTH 9 0
BBX 9 13 1 -4
BITMAP
1E00
3300
6180
4000
C000
C000
C300
6600
3C00
1000
1800
0400
3800
ENDCHAR
STARTCHAR 00E8
ENCODING 232
SWIDTH 540 0
DWIDTH 9 0
BBX 9 13 1 0
BITMAP
0800
0C00
0400
0000
1F00
3100
6180
4100
FE00
C000
C300
6600
3C00
ENDCHAR
STARTCHAR 00E9
ENCODING 233
SWIDTH 540 0
DWIDTH 9 0
BBX 9 13 1 0
BITMAP
0100
0300
0200
0000
1F00
3100
6180
4100
FE00
C000
C300
6600
3C00
ENDCHAR
STARTCHAR 00EA
ENCODING 234
SWIDTH 540 0
DWIDTH 9 0
BBX 9 12 1 0
BITMAP
0600
0900
1000
1F00
3100
6180
4100
FE00
C000
C300
6600
3C00
ENDCHAR
STARTCHAR 00EB
ENCODING 235
SWIDTH 540 0
DWIDTH 9 0
BBX 9 12 1 0
BITMAP
1980
0900
0000
1F00
3100
6180
4100
FE00
C000
C300
6600
3C00
ENDCHAR
STARTCHAR 00EC
ENCODING 236
SWIDTH 240 0
DWIDTH 4 0
BBX 3 13 1 0
BITMAP
40
60
20
00
20
20
60
60
60
40
40
40
C0
ENDCHAR
STARTCHAR 00ED
ENCODING 237
SWIDTH 240 0
DWIDTH 4 0
BBX 6 13 1 0
BITMAP
0C
18
10
00
20
20
60
60
60
40
40
40
C0
ENDCHAR
STARTCHAR 00EE
ENCODING 238
SWIDTH 240 0
DWIDTH 4 0
BBX 5 12 1 0
BITMAP
30
48
00
20
20
60
60
60
40
40
40
C0
ENDCHAR
STARTCHAR 00EF
ENCODING 239
SWIDTH 240 0
DWIDTH 4 0
BBX 6 12 1 0
BITMAP
4C
48
00
20
20
60
60
60
40
40
40
C0
ENDCHAR
STARTCHAR 00F0
ENCODING 240
SWIDTH 600 0
DWIDTH 10 0
BBX 10 13 1 0
BITMAP
06C0
0380
0580
0080
1E80
3280
6180
4180
C180
C100
C300
6600
3C00
ENDCHAR
STARTCHAR 00F1
ENCODING 241
SWIDTH 600 0
DWIDTH 10 0
BBX 9 12 1 0
BITMAP
0F80
0000
0000
2F00
3180
6180
6080
4180
4180
4100
4100
C100
ENDCHAR
STARTCHAR 00F2
ENCODING 242
SWIDTH 540 0
DWIDTH 9 0
BBX 9 13 1 0
BITMAP
0800
0800
0400
0000
1E00
3300
6180
4180
C180
C100
C300
6600
3C00
ENDCHAR
STARTCHAR 00F3
ENCODING 243
SWIDTH 540 0
DWIDTH 9 0
BBX 9 13 1 0
BITMAP
0100
0200
0600
0000
1E00
3300
6180
4180
C180
C100
C300
6600
3C00
ENDCHAR
STARTCHAR 00F4
ENCODING 244
SWIDTH 540 0
DWIDTH 9 0
BBX 9 12 1 0
BITMAP
0E00
1B00
0000
1E00
3300
6180
4180
C180
C100
C300
6600
3C00
ENDCHAR
STARTCHAR 00F5
ENCODING 245
SWIDTH 540 0
DWIDTH 9 0
BBX 9 12 1 0
BITMAP
1F00
0000
0000
1E00
3300
6180
4180
C180
C100
C300
6600
3C00
ENDCHAR
STARTCHAR 00F6
ENCODING 246
SWIDTH 540 0
DWIDTH 9 0
BBX 9 12 1 0
BITMAP
1B00
0100
0000
1E00
3300
6180
4180
C180
C100
C300
6600
3C00
ENDCHAR
STARTCHAR 00F7
ENCODING 247
SWIDTH 600 0
DWIDTH 10 0
BBX 7 8 2 1
BITMAP
30
20
00
FE
00
00
30
20
ENDCHAR
STARTCHAR 00F8
ENCODING 248
SWIDTH 540 0
DWIDTH 9 0
BBX 9 11 1 -1
BITMAP
0080
1F00
3300
6380
4580
C980
D900
D300
6600
7C00
4000
ENDCHAR
STARTCHAR 00F9
ENCODING 249
SWIDTH 600 0
DWIDTH 10 0
BBX 8 13 2 0
BITMAP
10
10
08
00
41
C1
C1
C3
83
82
82
CE
76
ENDCHAR
STARTCHAR 00FA
ENCODING 250
SWIDTH 600 0
DWIDTH 10 0
BBX 8 13 2 0
BITMAP
02
04
0C
00
41
C1
C1
C3
83
82
82
CE
76
ENDCHAR
STARTCHAR 00FB
ENCODING 251
SWIDTH 600 0
DWIDTH 10 0
BBX 8 12 2 0
BITMAP
1C
36
00
41
C1
C1
C3
83
82
82
CE
76
ENDCHAR
STARTCHAR 00FC
ENCODING 252
SWIDTH 600 0
DWIDTH 10 0
BBX 8 12 2 0
BITMAP
36
02
00
41
C1
C1
C3
83
82
82
CE
76
ENDCHAR
STARTCHAR 00FD
ENCODING 253
SWIDTH 480 0
DWIDTH 8 0
BBX 10 16 0 -3
BITMAP
0180
0300
0200
0000
20C0
2080
3100
3300
1200
1600
1400
1C00
1800
1000
3000
E000
ENDCHAR
STARTCHAR 00FE
ENCODING 254
SWIDTH 600 0
DWIDTH 10 0
BBX 9 17 1 -4
BITMAP
3000
3000
2000
2000
2F00
3980
6080
6080
4080
4080
6180
E300
DE00
C000
8000
8000
8000
ENDCHAR
STARTCHAR 00FF
ENCODING 255
SWIDTH 480 0
DWIDTH 8 0
BBX 10 15 0 -3
BITMAP
0980
0900
0000
20C0
2080
3100
3300
1200
1600
1400
1C00
1800
1000
3000
E000
ENDCHAR
STARTCHAR 0100
ENCODING 256
SWIDTH 660 0
DWIDTH 11 0
BBX 10 14 1 0
BITMAP
0F80
0000
0200
0700
0700
0D00
0900
1900
1180
3F80
3F80
4080
C080
80C0
ENDCHAR
STARTCHAR 0101
ENCODING 257
SWIDTH 600 0
DWIDTH 10 0
BBX 9 11 1 0
BITMAP
1F00
0000
1E80
3280
6180
4180
C180
C180
C300
6500
7900
ENDCHAR
STARTCHAR 0102
ENCODING 258
SWIDTH 660 0
DWIDTH 11 0
BBX 10 15 1 0
BITMAP
0C40
0780
0000
0200
0700
0700
0D00
0900
1900
1180
3F80
3F80
4080
C080
80C0
ENDCHAR
STARTCHAR 0103
ENCODING 259
SWIDTH 600 0
DWIDTH 10 0
BBX 9 12 1 0
BITMAP
1980
0E00
0000
1E80
3280
6180
4180
C180
C180
C300
6500
7900
ENDCHAR
STARTCHAR 0104
ENCODING 260
SWIDTH 660 0
DWIDTH 11 0
BBX 10 15 1 -3
BITMAP
0200
0700
0700
0D00
0900
1900
1180
3F80
3F80
4080
C080
80C0
0080
0100
00C0
ENDCHAR
STARTCHAR 0105
ENCODING 261
SWIDTH 600 0
DWIDTH 10 0
BBX 9 12 1 -3
BITMAP
1E80
3280
6180
4180
C180
C180
C300
6500
7900
0200
0200
0300
ENDCHAR
STARTCHAR 0106
ENCODING 262
SWIDTH 660 0
DWIDTH 11 0
BBX 10 16 2 0
BITMAP
0080
0100
0200
0000
0F00
39C0
60C0
4040
C000
C000
8000
8000
80C0
C180
6300
3E00
ENDCHAR
STARTCHAR 0107
ENCODING 263
SWIDTH 540 0
DWIDTH 9 0
BBX 9 13 1 0
BITMAP
0100
0200
0600
0000
1E00
3300
6180
4000
C000
C000
C300
6600
3C00
ENDCHAR
STARTCHAR 010A
ENCODING 266
SWIDTH 660 0
DWIDTH 11 0
BBX 10 15 2 0
BITMAP
0200
0200
0000
0F00
39C0
60C0
4040
C000
C000
8000
8000
80C0
C180
6300
3E00
ENDCHAR
STARTCHAR 010B
ENCODING 267
SWIDTH 540 0
DWIDTH 9 0
BBX 9 12 1 0
BITMAP
0600
0400
0000
1E00
3300
6180
4000
C000
C000
C300
6600
3C00
ENDCHAR
STARTCHAR 010C
ENCODING 268
SWIDTH 660 0
DWIDTH 11 0
BBX 10 15 2 0
BITMAP
0D80
0700
0000
0F00
39C0
60C0
4040
C000
C000
8000
8000
80C0
C180
6300
3E00
ENDCHAR
STARTCHAR 010D
ENCODING 269
SWIDTH 540 0
DWIDTH 9 0
BBX 9 12 1 0
BITMAP
0B00
0E00
0000
1E00
3300
6180
4000
C000
C000
C300
6600
3C00
ENDCHAR
STARTCHAR 010E
ENCODING 270
SWIDTH 660 0
DWIDTH 11 0
BBX 11 15 1 0
BITMAP
0480
0300
0000
3F00
3FC0
20C0
2060
2060
6060
6060
4040
40C0
4080
4300
FE00
ENDCHAR
STARTCHAR 010F
ENCODING 271
SWIDTH 720 0
DWIDTH 12 0
BBX 13 13 1 0
BITMAP
0058
00D8
00C8
00D0
1E80
3280
6180
4180
C180
C180
C300
6500
7900
ENDCHAR
STARTCHAR 0110
ENCODING 272
SWIDTH 660 0
DWIDTH 11 0
BBX 10 12 2 0
BITMAP
3E00
7F80
60C0
6040
4040
4040
F040
C0C0
C080
C180
8700
FC00
ENDCHAR
STARTCHAR 0111
ENCODING 273
SWIDTH 600 0
DWIDTH 10 0
BBX 11 13 1 0
BITMAP
0040
00C0
03E0
00C0
1E80
3280
6180
4180
C180
C180
C300
6500
7900
ENDCHAR
STARTCHAR 0112
ENCODING 274
SWIDTH 540 0
DWIDTH 9 0
BBX 9 14 1 0
BITMAP
0F80
0000
3F80
3F80
2000
2000
2000
7F00
7F00
4000
4000
4000
4000
FF00
ENDCHAR
STARTCHAR 0113
ENCODING 275
SWIDTH 540 0
DWIDTH 9 0
BBX 9 11 1 0
BITMAP
1F00
0000
1F00
3100
6180
4100
FE00
C000
C300
6600
3C00
ENDCHAR
STARTCHAR 0116
ENCODING 278
SWIDTH 540 0
DWIDTH 9 0
BBX 9 15 1 0
BITMAP
0600
0200
0000
3F80
3F80
2000
2000
2000
7F00
7F00
4000
4000
4000
4000
FF00
ENDCHAR
STARTCHAR 0117
ENCODING 279
SWIDTH 540 0
DWIDTH 9 0
BBX 9 12 1 0
BITMAP
0600
0400
0000
1F00
3100
6180
4100
FE00
C000
C300
6600
3C00
ENDCHAR
STARTCHAR 0118
ENCODING 280
SWIDTH 540 0
DWIDTH 9 0
BBX 9 15 1 -3
BITMAP
3F80
3F80
2000
2000
2000
7F00
7F00
4000
4000
4000
4000
FF00
0200
0400
0300
ENDCHAR
STARTCHAR 0119
ENCODING 281
SWIDTH 540 0
DWIDTH 9 0
BBX 9 12 1 -3
BITMAP
1F00
3100
6180
4100
FE00
C000
C300
6600
3C00
1800
1000
1800
ENDCHAR
STARTCHAR 011A
ENCODING 282
SWIDTH 540 0
DWIDTH 9 0
BBX 9 15 1 0
BITMAP
0D80
0600
0000
3F80
3F80
2000
2000
2000
7F00
7F00
4000
4000
4000
4000
FF00
ENDCHAR
STARTCHAR 011B
ENCODING 283
SWIDTH 540 0
DWIDTH 9 0
BBX 9 12 1 0
BITMAP
0900
0600
0000
1F00
3100
6180
4100
FE00
C000
C300
6600
3C00
ENDCHAR
STARTCHAR 011E
ENCODING 286
SWIDTH 660 0
DWIDTH 11 0
BBX 10 15 2 0
BITMAP
0880
0700
0000
0F00
3980
60C0
4040
C000
8000
87C0
80C0
8080
C180
6380
3C80
ENDCHAR
STARTCHAR 011F
ENCODING 287
SWIDTH 600 0
DWIDTH 10 0
BBX 9 16 1 -4
BITMAP
1900
0E00
0000
1E80
3280
6180
4180
C180
C180
C300
6500
3900
0300
0200
3C00
1000
ENDCHAR
STARTCHAR 0120
ENCODING 288
SWIDTH 660 0
DWIDTH 11 0
BBX 10 15 2 0
BITMAP
0200
0200
0000
0F00
3980
60C0
4040
C000
8000
87C0
80C0
8080
C180
6380
3C80
ENDCHAR
STARTCHAR 0121
ENCODING 289
SWIDTH 600 0
DWIDTH 10 0
BBX 9 16 1 -4
BITMAP
0600
0400
0000
1E80
3280
6180
4180
C180
C180
C300
6500
3900
0300
0200
3C00
1000
ENDCHAR
STARTCHAR 0126
ENCODING 294
SWIDTH 660 0
DWIDTH 11 0
BBX 12 12 1 0
BITMAP
3020
3020
7FF0
2060
2040
6040
7FC0
6040
40C0
40C0
4080
C080
ENDCHAR
STARTCHAR 0127
ENCODING 295
SWIDTH 600 0
DWIDTH 10 0
BBX 9 13 1 0
BITMAP
1000
3000
7C00
2000
2700
3980
2080
6080
6080
4180
4180
4100
C100
ENDCHAR
STARTCHAR 0128
ENCODING 296
SWIDTH 240 0
DWIDTH 4 0
BBX 6 15 1 0
BITMAP
74
48
00
30
30
20
20
20
60
60
60
40
40
40
C0
ENDCHAR
STARTCHAR 0129
ENCODING 297
SWIDTH 240 0
DWIDTH 4 0
BBX 6 12 1 0
BITMAP
7C
00
00
20
20
60
60
60
40
40
40
C0
ENDCHAR
STARTCHAR 012A
ENCODING 298
SWIDTH 240 0
DWIDTH 4 0
BBX 6 14 1 0
BITMAP
7C
00
30
30
20
20
20
60
60
60
40
40
40
C0
ENDCHAR
STARTCHAR 012B
ENCODING 299
SWIDTH 240 0
DWIDTH 4 0
BBX 5 11 1 0
BITMAP
F8
00
20
20
60
60
60
40
40
40
C0
ENDCHAR
STARTCHAR 012E
ENCODING 302
SWIDTH 240 0
DWIDTH 4 0
BBX 4 15 1 -3
BITMAP
30
30
20
20
20
60
60
60
40
40
40
C0
80
80
C0
ENDCHAR
STARTCHAR 012F
ENCODING 303
SWIDTH 240 0
DWIDTH 4 0
BBX 4 15 1 -3
BITMAP
30
20
00
20
20
60
60
60
40
40
40
C0
80
80
C0
ENDCHAR
STARTCHAR 0130
ENCODING 304
SWIDTH 240 0
DWIDTH 4 0
BBX 4 15 1 0
BITMAP
10
10
00
30
30
20
20
20
60
60
60
40
40
40
C0
ENDCHAR
STARTCHAR 0131
ENCODING 305
SWIDTH 240 0
DWIDTH 4 0
BBX 3 9 1 0
BITMAP
20
20
60
60
60
40
40
40
C0
ENDCHAR
STARTCHAR 0139
ENCODING 313
SWIDTH 480 0
DWIDTH 8 0
BBX 7 16 1 0
BITMAP
04
08
10
00
30
20
20
20
20
60
60
40
40
40
40
FE
ENDCHAR
STARTCHAR 013A
ENCODING 314
SWIDTH 300 0
DWIDTH 5 0
BBX 5 17 2 0
BITMAP
08
18
30
00
60
60
60
40
40
40
C0
C0
C0
80
80
80
E0
ENDCHAR
STARTCHAR 013D
ENCODING 317
SWIDTH 480 0
DWIDTH 8 0
BBX 7 15 1 0
BITMAP
6C
38
00
30
20
20
20
20
60
60
40
40
40
40
FE
ENDCHAR
STARTCHAR 013E
ENCODING 318
SWIDTH 300 0
DWIDTH 5 0
BBX 4 13 2 0
BITMAP
70
70
70
60
40
40
C0
C0
C0
80
80
80
E0
ENDCHAR
STARTCHAR 0143
ENCODING 323
SWIDTH 660 0
DWIDTH 11 0
BBX 12 16 1 0
BITMAP
00C0
0080
0100
0000
3030
3020
3820
2820
2C60
6460
6660
4240
4340
4140
41C0
C0C0
ENDCHAR
STARTCHAR 0144
ENCODING 324
SWIDTH 600 0
DWIDTH 10 0
BBX 9 13 1 0
BITMAP
0180
0300
0200
0000
2F00
3180
6180
6080
4180
4180
4100
4100
C100
ENDCHAR
STARTCHAR 0147
ENCODING 327
SWIDTH 660 0
DWIDTH 11 0
BBX 12 15 1 0
BITMAP
06C0
0380
0000
3030
3020
3820
2820
2C60
6460
6660
4240
4340
4140
41C0
C0C0
ENDCHAR
STARTCHAR 0148
ENCODING 328
SWIDTH 600 0
DWIDTH 10 0
BBX 9 12 1 0
BITMAP
0900
0600
0000
2F00
3180
6180
6080
4180
4180
4100
4100
C100
ENDCHAR
STARTCHAR 014C
ENCODING 332
SWIDTH 720 0
DWIDTH 12 0
BBX 10 14 2 0
BITMAP
0F80
0000
0F00
39C0
60C0
4040
C040
8040
8040
80C0
80C0
C180
6300
3E00
ENDCHAR
STARTCHAR 014D
ENCODING 333
SWIDTH 540 0
DWIDTH 9 0
BBX 9 11 1 0
BITMAP
1F00
0000
1E00
3300
6180
4180
C180
C100
C300
6600
3C00
ENDCHAR
STARTCHAR 0152
ENCODING 338
SWIDTH 960 0
DWIDTH 16 0
BBX 15 12 2 0
BITMAP
07FE
3FFE
6180
4180
C180
81F8
81F8
8100
8300
C300
E300
3FF8
ENDCHAR
STARTCHAR 0153
ENCODING 339
SWIDTH 960 0
DWIDTH 16 0
BBX 14 9 2 0
BITMAP
3C78
66CC
C384
8304
83FC
8300
830C
C598
78F0
ENDCHAR
STARTCHAR 0154
ENCODING 340
SWIDTH 600 0
DWIDTH 10 0
BBX 10 16 1 0
BITMAP
0180
0100
0200
0000
3F00
3F80
20C0
20C0
2080
6180
7F00
4400
4600
4200
4300
C100
ENDCHAR
STARTCHAR 0155
ENCODING 341
SWIDTH 300 0
DWIDTH 5 0
BBX 6 13 1 0
BITMAP
04
0C
08
00
2C
7C
60
60
40
40
40
C0
C0
ENDCHAR
STARTCHAR 0158
ENCODING 344
SWIDTH 600 0
DWIDTH 10 0
BBX 10 15 1 0
BITMAP
0980
0600
0000
3F00
3F80
20C0
20C0
2080
6180
7F00
4400
4600
4200
4300
C100
ENDCHAR
STARTCHAR 0159
ENCODING 345
SWIDTH 300 0
DWIDTH 5 0
BBX 6 12 1 0
BITMAP
24
18
00
2C
7C
60
60
40
40
40
C0
C0
ENDCHAR
STARTCHAR 015A
ENCODING 346
SWIDTH 540 0
DWIDTH 9 0
BBX 10 16 1 0
BITMAP
0080
0100
0300
0000
0F00
1980
2080
20C0
2000
3C00
0F00
0180
C180
C180
6300
3E00
ENDCHAR
STARTCHAR 015B
ENCODING 347
SWIDTH 480 0
DWIDTH 8 0
BBX 8 13 1 0
BITMAP
03
06
04
00
1E
62
43
60
3C
06
C2
C6
7C
ENDCHAR
STARTCHAR 015E
ENCODING 350
SWIDTH 540 0
DWIDTH 9 0
BBX 10 16 1 -4
BITMAP
0F00
1980
2080
20C0
2000
3C00
0F00
0180
C180
C180
6300
3E00
1000
1C00
0400
1800
ENDCHAR
STARTCHAR 015F
ENCODING 351
SWIDTH 480 0
DWIDTH 8 0
BBX 8 13 1 -4
BITMAP
1E
62
43
60
3C
06
C2
C6
7C
10
38
08
38
ENDCHAR
STARTCHAR 0160
ENCODING 352
SWIDTH 540 0
DWIDTH 9 0
BBX 10 15 1 0
BITMAP
0580
0700
0000
0F00
1980
2080
20C0
2000
3C00
0F00
0180
C180
C180
6300
3E00
ENDCHAR
STARTCHAR 0161
ENCODING 353
SWIDTH 480 0
DWIDTH 8 0
BBX 8 12 1 0
BITMAP
1B
0C
00
1E
62
43
60
3C
06
C2
C6
7C
ENDCHAR
STARTCHAR 0162
ENCODING 354
SWIDTH 540 0
DWIDTH 9 0
BBX 8 16 3 -4
BITMAP
FF
FF
10
10
30
30
30
20
20
20
60
60
40
60
20
E0
ENDCHAR
STARTCHAR 0163
ENCODING 355
SWIDTH 360 0
DWIDTH 6 0
BBX 5 16 2 -4
BITMAP
30
20
20
F8
60
60
60
40
40
40
C0
70
40
70
10
60
ENDCHAR
STARTCHAR 0164
ENCODING 356
SWIDTH 540 0
DWIDTH 9 0
BBX 8 15 3 0
BITMAP
36
18
00
FF
FF
10
10
30
30
30
20
20
20
60
60
ENDCHAR
STARTCHAR 0165
ENCODING 357
SWIDTH 480 0
DWIDTH 8 0
BBX 6 13 2 0
BITMAP
0C
3C
24
28
F8
60
60
60
40
40
40
C0
70
ENDCHAR
STARTCHAR 0166
ENCODING 358
SWIDTH 540 0
DWIDTH 9 0
BBX 8 12 3 0
BITMAP
FF
FF
10
10
30
FE
30
20
20
20
60
60
ENDCHAR
STARTCHAR 0167
ENCODING 359
SWIDTH 360 0
DWIDTH 6 0
BBX 5 12 2 0
BITMAP
30
20
20
F8
60
60
60
D0
40
40
C0
70
ENDCHAR
STARTCHAR 0168
ENCODING 360
SWIDTH 660 0
DWIDTH 11 0
BBX 10 15 2 0
BITMAP
0E80
1100
0000
4040
4040
4040
40C0
C0C0
C080
8080
8080
8180
C100
E700
7C00
ENDCHAR
STARTCHAR 0169
ENCODING 361
SWIDTH 600 0
DWIDTH 10 0
BBX 8 12 2 0
BITMAP
3E
00
00
41
C1
C1
C3
83
82
82
CE
76
ENDCHAR
STARTCHAR 016A
ENCODING 362
SWIDTH 660 0
DWIDTH 11 0
BBX 10 14 2 0
BITMAP
0F80
0000
4040
4040
4040
40C0
C0C0
C080
8080
8080
8180
C100
E700
7C00
ENDCHAR
STARTCHAR 016B
ENCODING 363
SWIDTH 600 0
DWIDTH 10 0
BBX 8 11 2 0
BITMAP
3E
00
41
C1
C1
C3
83
82
82
CE
76
ENDCHAR
STARTCHAR 016E
ENCODING 366
SWIDTH 660 0
DWIDTH 11 0
BBX 10 16 2 0
BITMAP
0600
0900
0600
0000
4040
4040
4040
40C0
C0C0
C080
8080
8080
8180
C100
E700
7C00
ENDCHAR
STARTCHAR 016F
ENCODING 367
SWIDTH 600 0
DWIDTH 10 0
BBX 8 13 2 0
BITMAP
0C
14
08
00
41
C1
C1
C3
83
82
82
CE
76
ENDCHAR
STARTCHAR 0172
ENCODING 370
SWIDTH 660 0
DWIDTH 11 0
BBX 10 15 2 -3
BITMAP
4040
4040
4040
40C0
C0C0
C080
8080
8080
8180
C100
E700
7C00
1000
2000
1800
ENDCHAR
STARTCHAR 0173
ENCODING 371
SWIDTH 600 0
DWIDTH 10 0
BBX 8 12 2 -3
BITMAP
41
C1
C1
C3
83
82
82
CE
76
04
0C
06
ENDCHAR
STARTCHAR 0174
ENCODING 372
SWIDTH 960 0
DWIDTH 16 0
BBX 16 15 2 0
BITMAP
01C0
0360
0000
C081
C183
C182
4286
42C4
44C4
44CC
4848
4858
5850
7070
7060
ENDCHAR
STARTCHAR 0175
ENCODING 373
SWIDTH 780 0
DWIDTH 13 0
BBX 12 12 2 0
BITMAP
0700
0D80
0000
8210
C610
C630
CA20
4B60
5340
51C0
7180
6180
ENDCHAR
STARTCHAR 0176
ENCODING 374
SWIDTH 600 0
DWIDTH 10 0
BBX 8 15 3 0
BITMAP
1C
36
00
81
C3
C2
44
4C
68
30
30
20
20
20
60
ENDCHAR
STARTCHAR 0177
ENCODING 375
SWIDTH 480 0
DWIDTH 8 0
BBX 10 15 0 -3
BITMAP
0600
0900
0000
20C0
2080
3100
3300
1200
1600
1400
1C00
1800
1000
3000
E000
ENDCHAR
STARTCHAR 0178
ENCODING 376
SWIDTH 600 0
DWIDTH 10 0
BBX 8 15 3 0
BITMAP
36
26
00
81
C3
C2
44
4C
68
30
30
20
20
20
60
ENDCHAR
STARTCHAR 0179
ENCODING 377
SWIDTH 600 0
DWIDTH 10 0
BBX 10 16 1 0
BITMAP
0080
0100
0200
0000
3FC0
3FC0
0180
0100
0200
0400
0C00
1800
3000
6000
C000
FF00
ENDCHAR
STARTCHAR 017A
ENCODING 378
SWIDTH 480 0
DWIDTH 8 0
BBX 8 13 1 0
BITMAP
03
02
04
00
3F
03
06
0C
18
30
60
C0
FE
ENDCHAR
STARTCHAR 017B
ENCODING 379
SWIDTH 600 0
DWIDTH 10 0
BBX 10 15 1 0
BITMAP
0200
0200
0000
3FC0
3FC0
0180
0100
0200
0400
0C00
1800
3000
6000
C000
FF00
ENDCHAR
STARTCHAR 017C
ENCODING 380
SWIDTH 480 0
DWIDTH 8 0
BBX 8 12 1 0
BITMAP
0C
00
00
3F
03
06
0C
18
30
60
C0
FE
ENDCHAR
STARTCHAR 017D
ENCODING 381
SWIDTH 600 0
DWIDTH 10 0
BBX 10 15 1 0
BITMAP
0D80
0700
0000
3FC0
3FC0
0180
0100
0200
0400
0C00
1800
3000
6000
C000
FF00
ENDCHAR
STARTCHAR 017E
ENCODING 382
SWIDTH 480 0
DWIDTH 8 0
BBX 8 12 1 0
BITMAP
1B
0C
00
3F
03
06
0C
18
30
60
C0
FE
ENDCHAR
STARTCHAR 01A0
ENCODING 416
SWIDTH 720 0
DWIDTH 12 0
BBX 11 13 2 0
BITMAP
0060
0FC0
39C0
60C0
4040
C040
8040
8040
80C0
80C0
C180
6300
3E00
ENDCHAR
STARTCHAR 01A1
ENCODING 417
SWIDTH 540 0
DWIDTH 9 0
BBX 10 10 1 0
BITMAP
0040
1F80
3300
6180
4180
C180
C100
C300
6600
3C00
ENDCHAR
STARTCHAR 01AF
ENCODING 431
SWIDTH 660 0
DWIDTH 11 0
BBX 12 13 2 0
BITMAP
0010
4070
4040
4040
40C0
C0C0
C080
8080
8080
8180
C100
E700
7C00
ENDCHAR
STARTCHAR 01B0
ENCODING 432
SWIDTH 600 0
DWIDTH 10 0
BBX 10 10 2 0
BITMAP
0040
41C0
C100
C100
C300
8300
8200
8200
CE00
7600
ENDCHAR
STARTCHAR 02C6
ENCODING 710
SWIDTH 360 0
DWIDTH 6 0
BBX 4 2 3 10
BITMAP
70
90
ENDCHAR
STARTCHAR 02C7
ENCODING 711
SWIDTH 360 0
DWIDTH 6 0
BBX 5 2 3 10
BITMAP
D8
60
ENDCHAR
STARTCHAR 02D8
ENCODING 728
SWIDTH 360 0
DWIDTH 6 0
BBX 5 2 3 10
BITMAP
88
70
ENDCHAR
STARTCHAR 02D9
ENCODING 729
SWIDTH 120 0
DWIDTH 2 0
BBX 2 2 2 10
BITMAP
C0
40
ENDCHAR
STARTCHAR 02DA
ENCODING 730
SWIDTH 180 0
DWIDTH 3 0
BBX 3 3 2 10
BITMAP
60
A0
60
ENDCHAR
STARTCHAR 02DB
ENCODING 731
SWIDTH 180 0
DWIDTH 3 0
BBX 3 3 0 -3
BITMAP
40
80
E0
ENDCHAR
STARTCHAR 02DC
ENCODING 732
SWIDTH 360 0
DWIDTH 6 0
BBX 5 1 3 11
BITMAP
F8
ENDCHAR
STARTCHAR 0300
ENCODING 768
SWIDTH 0 0
DWIDTH 0 0
BBX 2 3 -1 10
BITMAP
80
C0
40
ENDCHAR
STARTCHAR 0301
ENCODING 769
SWIDTH 0 0
DWIDTH 0 0
BBX 3 3 -1 10
BITMAP
60
C0
80
ENDCHAR
STARTCHAR 0302
ENCODING 770
SWIDTH 0 0
DWIDTH 0 0
BBX 5 2 -4 10
BITMAP
70
C8
ENDCHAR
STARTCHAR 0303
ENCODING 771
SWIDTH 0 0
DWIDTH 0 0
BBX 5 1 -3 11
BITMAP
F8
ENDCHAR
STARTCHAR 0304
ENCODING 772
SWIDTH 0 0
DWIDTH 0 0
BBX 4 1 -4 11
BITMAP
F0
ENDCHAR
STARTCHAR 0306
ENCODING 774
SWIDTH 0 0
DWIDTH 0 0
BBX 5 2 -4 10
BITMAP
88
70
ENDCHAR
STARTCHAR 0307
ENCODING 775
SWIDTH 0 0
DWIDTH 0 0
BBX 2 2 -1 10
BITMAP
C0
80
ENDCHAR
STARTCHAR 0308
ENCODING 776
SWIDTH 0 0
DWIDTH 0 0
BBX 5 2 -4 10
BITMAP
D8
90
ENDCHAR
STARTCHAR 0309
ENCODING 777
SWIDTH 0 0
DWIDTH 0 0
BBX 4 3 -2 10
BITMAP
F0
20
40
ENDCHAR
STARTCHAR 030A
ENCODING 778
SWIDTH 0 0
DWIDTH 0 0
BBX 3 3 -2 10
BITMAP
60
A0
40
ENDCHAR
STARTCHAR 030C
ENCODING 780
SWIDTH 0 0
DWIDTH 0 0
BBX 5 2 -4 10
BITMAP
D8
70
ENDCHAR
STARTCHAR 031B
ENCODING 795
SWIDTH 0 0
DWIDTH 0 0
BBX 3 2 -2 9
BITMAP
20
E0
ENDCHAR
STARTCHAR 0323
ENCODING 803
SWIDTH 0 0
DWIDTH 0 0
BBX 1 2 -2 -4
BITMAP
80
80
ENDCHAR
STARTCHAR 0327
ENCODING 807
SWIDTH 0 0
DWIDTH 0 0
BBX 3 4 -4 -4
BITMAP
40
E0
20
E0
ENDCHAR
STARTCHAR 0328
ENCODING 808
SWIDTH 0 0
DWIDTH 0 0
BBX 2 3 -3 -3
BITMAP
C0
80
C0
ENDCHAR
STARTCHAR 1E80
ENCODING 7808
SWIDTH 960 0
DWIDTH 16 0
BBX 16 16 2 0
BITMAP
0100
0100
0080
0000
C081
C183
C182
4286
42C4
44C4
44CC
4848
4858
5850
7070
7060
ENDCHAR
STARTCHAR 1E81
ENCODING 7809
SWIDTH 780 0
DWIDTH 13 0
BBX 12 13 2 0
BITMAP
0400
0400
0200
0000
8210
C610
C630
CA20
4B60
5340
51C0
7180
6180
ENDCHAR
STARTCHAR 1E82
ENCODING 7810
SWIDTH 960 0
DWIDTH 16 0
BBX 16 16 2 0
BITMAP
0020
0040
00C0
0000
C081
C183
C182
4286
42C4
44C4
44CC
4848
4858
5850
7070
7060
ENDCHAR
STARTCHAR 1E83
ENCODING 7811
SWIDTH 780 0
DWIDTH 13 0
BBX 12 13 2 0
BITMAP
0080
0100
0300
0000
8210
C610
C630
CA20
4B60
5340
51C0
7180
6180
ENDCHAR
STARTCHAR 1E84
ENCODING 7812
SWIDTH 960 0
DWIDTH 16 0
BBX 16 15 2 0
BITMAP
0320
0320
0000
C081
C183
C182
4286
42C4
44C4
44CC
4848
4858
5850
7070
7060
ENDCHAR
STARTCHAR 1E85
ENCODING 7813
SWIDTH 780 0
DWIDTH 13 0
BBX 12 12 2 0
BITMAP
0C80
0080
0000
8210
C610
C630
CA20
4B60
5340
51C0
7180
6180
ENDCHAR
STARTCHAR 1EA0
ENCODING 7840
SWIDTH 660 0
DWIDTH 11 0
BBX 10 16 1 -4
BITMAP
0200
0700
0700
0D00
0900
1900
1180
3F80
3F80
4080
C080
80C0
0000
0000
1800
1800
ENDCHAR
STARTCHAR 1EA1
ENCODING 7841
SWIDTH 600 0
DWIDTH 10 0
BBX 9 13 1 -4
BITMAP
1E80
3280
6180
4180
C180
C180
C300
6500
7900
0000
0000
1800
1000
ENDCHAR
STARTCHAR 1EA2
ENCODING 7842
SWIDTH 660 0
DWIDTH 11 0
BBX 10 16 1 0
BITMAP
0380
0080
0100
0000
0200
0700
0700
0D00
0900
1900
1180
3F80
3F80
4080
C080
80C0
ENDCHAR
STARTCHAR 1EA3
ENCODING 7843
SWIDTH 600 0
DWIDTH 10 0
BBX 9 13 1 0
BITMAP
0700
0100
0200
0000
1E80
3280
6180
4180
C180
C180
C300
6500
7900
ENDCHAR
STARTCHAR 1EA4
ENCODING 7844
SWIDTH 660 0
DWIDTH 11 0
BBX 12 18 1 0
BITMAP
0010
0030
0020
0300
0480
0000
0200
0700
0700
0D00
0900
1900
1180
3F80
3F80
4080
C080
80C0
ENDCHAR
STARTCHAR 1EA5
ENCODING 7845
SWIDTH 600 0
DWIDTH 10 0
BBX 11 15 1 0
BITMAP
0020
0040
00C0
0600
0900
1000
1E80
3280
6180
4180
C180
C180
C300
6500
7900
ENDCHAR
STARTCHAR 1EA6
ENCODING 7846
SWIDTH 660 0
DWIDTH 11 0
BBX 10 18 1 0
BITMAP
0080
00C0
0040
0300
0480
0000
0200
0700
0700
0D00
0900
1900
1180
3F80
3F80
4080
C080
80C0
ENDCHAR
STARTCHAR 1EA7
ENCODING 7847
SWIDTH 600 0
DWIDTH 10 0
BBX 9 15 1 0
BITMAP
0100
0180
0080
0600
1900
0000
1E80
3280
6180
4180
C180
C180
C300
6500
7900
ENDCHAR
STARTCHAR 1EA8
ENCODING 7848
SWIDTH 660 0
DWIDTH 11 0
BBX 12 18 1 0
BITMAP
0070
0010
0020
0300
0480
0000
0200
0700
0700
0D00
0900
1900
1180
3F80
3F80
4080
C080
80C0
ENDCHAR
STARTCHAR 1EA9
ENCODING 7849
SWIDTH 600 0
DWIDTH 10 0
BBX 10 15 1 0
BITMAP
01C0
0040
00C0
0600
1900
0000
1E80
3280
6180
4180
C180
C180
C300
6500
7900
ENDCHAR
STARTCHAR 1EAA
ENCODING 7850
SWIDTH 660 0
DWIDTH 11 0
BBX 10 18 1 0
BITMAP
0240
0580
0000
0300
0480
0000
0200
0700
0700
0D00
0900
1900
1180
3F80
3F80
4080
C080
80C0
ENDCHAR
STARTCHAR 1EAB
ENCODING 7851
SWIDTH 600 0
DWIDTH 10 0
BBX 9 15 1 0
BITMAP
0C80
1300
0000
0600
0900
1000
1E80
3280
6180
4180
C180
C180
C300
6500
7900
ENDCHAR
STARTCHAR 1EAC
ENCODING 7852
SWIDTH 660 0
DWIDTH 11 0
BBX 10 19 1 -4
BITMAP
0300
0480
0000
0200
0700
0700
0D00
0900
1900
1180
3F80
3F80
4080
C080
80C0
0000
0000
1800
1800
ENDCHAR
STARTCHAR 1EAD
ENCODING 7853
SWIDTH 600 0
DWIDTH 10 0
BBX 9 16 1 -4
BITMAP
0600
1900
0000
1E80
3280
6180
4180
C180
C180
C300
6500
7900
0000
0000
1800
1000
ENDCHAR
STARTCHAR 1EAE
ENCODING 7854
SWIDTH 660 0
DWIDTH 11 0
BBX 10 18 1 0
BITMAP
00C0
0080
0100
0C40
0780
0000
0200
0700
0700
0D00
0900
1900
1180
3F80
3F80
4080
C080
80C0
ENDCHAR
STARTCHAR 1EAF
ENCODING 7855
SWIDTH 600 0
DWIDTH 10 0
BBX 9 15 1 0
BITMAP
0180
0300
0200
1980
0E00
0000
1E80
3280
6180
4180
C180
C180
C300
6500
7900
ENDCHAR
STARTCHAR 1EB0
ENCODING 7856
SWIDTH 660 0
DWIDTH 11 0
BBX 10 18 1 0
BITMAP
0200
0200
0100
0440
0780
0000
0200
0700
0700
0D00
0900
1900
1180
3F80
3F80
4080
C080
80C0
ENDCHAR
STARTCHAR 1EB1
ENCODING 7857
SWIDTH 600 0
DWIDTH 10 0
BBX 9 15 1 0
BITMAP
0C00
0400
0600
1980
0E00
0000
1E80
3280
6180
4180
C180
C180
C300
6500
7900
ENDCHAR
STARTCHAR 1EB2
ENCODING 7858
SWIDTH 660 0
DWIDTH 11 0
BBX 10 18 1 0
BITMAP
0380
0080
0100
0C40
0780
0000
0200
0700
0700
0D00
0900
1900
1180
3F80
3F80
4080
C080
80C0
ENDCHAR
STARTCHAR 1EB3
ENCODING 7859
SWIDTH 600 0
DWIDTH 10 0
BBX 9 15 1 0
BITMAP
0700
0100
0200
1980
0E00
0000
1E80
3280
6180
4180
C180
C180
C300
6500
7900
ENDCHAR
STARTCHAR 1EB4
ENCODING 7860
SWIDTH 660 0
DWIDTH 11 0
BBX 10 17 1 0
BITMAP
07C0
0000
0CC0
0780
0000
0200
0700
0700
0D00
0900
1900
1180
3F80
3F80
4080
C080
80C0
ENDCHAR
STARTCHAR 1EB5
ENCODING 7861
SWIDTH 600 0
DWIDTH 10 0
BBX 9 15 1 0
BITMAP
0480
0B80
0000
1900
0E00
0000
1E80
3280
6180
4180
C180
C180
C300
6500
7900
ENDCHAR
STARTCHAR 1EB6
ENCODING 7862
SWIDTH 660 0
DWIDTH 11 0
BBX 10 19 1 -4
BITMAP
0C40
0780
0000
0200
0700
0700
0D00
0900
1900
1180
3F80
3F80
4080
C080
80C0
0000
0000
1800
1800
ENDCHAR
STARTCHAR 1EB7
ENCODING 7863
SWIDTH 600 0
DWIDTH 10 0
BBX 9 16 1 -4
BITMAP
1980
0E00
0000
1E80
3280
6180
4180
C180
C180
C300
6500
7900
0000
0000
1800
1000
ENDCHAR
STARTCHAR 1EB8
ENCODING 7864
SWIDTH 540 0
DWIDTH 9 0
BBX 9 16 1 -4
BITMAP
3F80
3F80
2000
2000
2000
7F00
7F00
4000
4000
4000
4000
FF00
0000
0000
1000
1000
ENDCHAR
STARTCHAR 1EB9
ENCODING 7865
SWIDTH 540 0
DWIDTH 9 0
BBX 9 13 1 -4
BITMAP
1F00
3100
6180
4100
FE00
C000
C300
6600
3C00
0000
0000
1800
1800
ENDCHAR
STARTCHAR 1EBA
ENCODING 7866
SWIDTH 540 0
DWIDTH 9 0
BBX 9 16 1 0
BITMAP
0700
0100
0200
0000
3F80
3F80
2000
2000
2000
7F00
7F00
4000
4000
4000
4000
FF00
ENDCHAR
STARTCHAR 1EBB
ENCODING 7867
SWIDTH 540 0
DWIDTH 9 0
BBX 9 13 1 0
BITMAP
0700
0100
0200
0000
1F00
3100
6180
4100
FE00
C000
C300
6600
3C00
ENDCHAR
STARTCHAR 1EBC
ENCODING 7868
SWIDTH 540 0
DWIDTH 9 0
BBX 9 15 1 0
BITMAP
0E80
1100
0000
3F80
3F80
2000
2000
2000
7F00
7F00
4000
4000
4000
4000
FF00
ENDCHAR
STARTCHAR 1EBD
ENCODING 7869
SWIDTH 540 0
DWIDTH 9 0
BBX 9 12 1 0
BITMAP
0F00
0000
0000
1F00
3100
6180
4100
FE00
C000
C300
6600
3C00
ENDCHAR
STARTCHAR 1EBE
ENCODING 7870
SWIDTH 540 0
DWIDTH 9 0
BBX 12 18 1 0
BITMAP
0030
0060
0040
0700
0900
0000
3F80
3F80
2000
2000
2000
7F00
7F00
4000
4000
4000
4000
FF00
ENDCHAR
STARTCHAR 1EBF
ENCODING 7871
SWIDTH 540 0
DWIDTH 9 0
BBX 11 15 1 0
BITMAP
0020
0040
00C0
0600
0900
1000
1F00
3100
6180
4100
FE00
C000
C300
6600
3C00
ENDCHAR
STARTCHAR 1EC0
ENCODING 7872
SWIDTH 540 0
DWIDTH 9 0
BBX 9 18 1 0
BITMAP
0100
0180
0080
0700
0900
0000
3F80
3F80
2000
2000
2000
7F00
7F00
4000
4000
4000
4000
FF00
ENDCHAR
STARTCHAR 1EC1
ENCODING 7873
SWIDTH 540 0
DWIDTH 9 0
BBX 9 15 1 0
BITMAP
0100
0180
0080
0600
0900
1000
1F00
3100
6180
4100
FE00
C000
C300
6600
3C00
ENDCHAR
STARTCHAR 1EC2
ENCODING 7874
SWIDTH 540 0
DWIDTH 9 0
BBX 11 18 1 0
BITMAP
00E0
0020
0040
0700
0900
0000
3F80
3F80
2000
2000
2000
7F00
7F00
4000
4000
4000
4000
FF00
ENDCHAR
STARTCHAR 1EC3
ENCODING 7875
SWIDTH 540 0
DWIDTH 9 0
BBX 11 15 1 0
BITMAP
01C0
0060
00C0
0600
0900
1000
1F00
3100
6180
4100
FE00
C000
C300
6600
3C00
ENDCHAR
STARTCHAR 1EC4
ENCODING 7876
SWIDTH 540 0
DWIDTH 9 0
BBX 9 18 1 0
BITMAP
0480
0B80
0000
0700
0900
0000
3F80
3F80
2000
2000
2000
7F00
7F00
4000
4000
4000
4000
FF00
ENDCHAR
STARTCHAR 1EC5
ENCODING 7877
SWIDTH 540 0
DWIDTH 9 0
BBX 9 15 1 0
BITMAP
0C80
1300
0000
0600
0900
1000
1F00
3100
6180
4100
FE00
C000
C300
6600
3C00
ENDCHAR
STARTCHAR 1EC6
ENCODING 7878
SWIDTH 540 0
DWIDTH 9 0
BBX 9 19 1 -4
BITMAP
0700
0900
0000
3F80
3F80
2000
2000
2000
7F00
7F00
4000
4000
4000
4000
FF00
0000
0000
1000
1000
ENDCHAR
STARTCHAR 1EC7
ENCODING 7879
SWIDTH 540 0
DWIDTH 9 0
BBX 9 16 1 -4
BITMAP
0600
0900
1000
1F00
3100
6180
4100
FE00
C000
C300
6600
3C00
0000
0000
1800
1800
ENDCHAR
STARTCHAR 1EC8
ENCODING 7880
SWIDTH 240 0
DWIDTH 4 0
BBX 5 16 1 0
BITMAP
38
08
18
00
30
30
20
20
20
60
60
60
40
40
40
C0
ENDCHAR
STARTCHAR 1EC9
ENCODING 7881
SWIDTH 240 0
DWIDTH 4 0
BBX 5 13 1 0
BITMAP
38
08
10
00
20
20
60
60
60
40
40
40
C0
ENDCHAR
STARTCHAR 1ECA
ENCODING 7882
SWIDTH 240 0
DWIDTH 4 0
BBX 4 16 1 -4
BITMAP
30
30
20
20
20
60
60
60
40
40
40
C0
00
00
C0
80
ENDCHAR
STARTCHAR 1ECB
ENCODING 7883
SWIDTH 240 0
DWIDTH 4 0
BBX 4 16 1 -4
BITMAP
30
20
00
20
20
60
60
60
40
40
40
C0
00
00
C0
80
ENDCHAR
STARTCHAR 1ECC
ENCODING 7884
SWIDTH 720 0
DWIDTH 12 0
BBX 10 16 2 -4
BITMAP
0F00
39C0
60C0
4040
C040
8040
8040
80C0
80C0
C180
6300
3E00
0000
0000
1800
1000
ENDCHAR
STARTCHAR 1ECD
ENCODING 7885
SWIDTH 540 0
DWIDTH 9 0
BBX 9 13 1 -4
BITMAP
1E00
3300
6180
4180
C180
C100
C300
6600
3C00
0000
0000
3000
1000
ENDCHAR
STARTCHAR 1ECE
ENCODING 7886
SWIDTH 720 0
DWIDTH 12 0
BBX 10 16 2 0
BITMAP
0700
0100
0100
0200
0F00
39C0
60C0
4040
C040
8040
8040
80C0
80C0
C180
6300
3E00
ENDCHAR
STARTCHAR 1ECF
ENCODING 7887
SWIDTH 540 0
DWIDTH 9 0
BBX 9 13 1 0
BITMAP
0E00
0200
0600
0000
1E00
3300
6180
4180
C180
C100
C300
6600
3C00
ENDCHAR
STARTCHAR 1ED0
ENCODING 7888
SWIDTH 720 0
DWIDTH 12 0
BBX 12 18 2 0
BITMAP
0030
0020
0040
0700
0D80
0000
0F00
39C0
60C0
4040
C040
8040
8040
80C0
80C0
C180
6300
3E00
ENDCHAR
STARTCHAR 1ED1
ENCODING 7889
SWIDTH 540 0
DWIDTH 9 0
BBX 11 15 1 0
BITMAP
0020
0040
0080
0E00
1B00
0000
1E00
3300
6180
4180
C180
C100
C300
6600
3C00
ENDCHAR
STARTCHAR 1ED2
ENCODING 7890
SWIDTH 720 0
DWIDTH 12 0
BBX 10 18 2 0
BITMAP
0180
0080
0080
0700
0D80
0000
0F00
39C0
60C0
4040
C040
8040
8040
80C0
80C0
C180
6300
3E00
ENDCHAR
STARTCHAR 1ED3
ENCODING 7891
SWIDTH 540 0
DWIDTH 9 0
BBX 9 15 1 0
BITMAP
0300
0100
0180
0E00
1B00
0000
1E00
3300
6180
4180
C180
C100
C300
6600
3C00
ENDCHAR
STARTCHAR 1ED4
ENCODING 7892
SWIDTH 720 0
DWIDTH 12 0
BBX 11 18 2 0
BITMAP
00E0
0020
0040
0700
0D80
0000
0F00
39C0
60C0
4040
C040
8040
8040
80C0
80C0
C180
6300
3E00
ENDCHAR
STARTCHAR 1ED5
ENCODING 7893
SWIDTH 540 0
DWIDTH 9 0
BBX 10 15 1 0
BITMAP
01C0
0040
0080
0E00
1B00
0000
1E00
3300
6180
4180
C180
C100
C300
6600
3C00
ENDCHAR
STARTCHAR 1ED6
ENCODING 7894
SWIDTH 720 0
DWIDTH 12 0
BBX 10 18 2 0
BITMAP
0640
0B80
0000
0700
0D80
0000
0F00
39C0
60C0
4040
C040
8040
8040
80C0
80C0
C180
6300
3E00
ENDCHAR
STARTCHAR 1ED7
ENCODING 7895
SWIDTH 540 0
DWIDTH 9 0
BBX 9 15 1 0
BITMAP
0C80
1300
0000
0E00
1B00
0000
1E00
3300
6180
4180
C180
C100
C300
6600
3C00
ENDCHAR
STARTCHAR 1ED8
ENCODING 7896
SWIDTH 720 0
DWIDTH 12 0
BBX 10 19 2 -4
BITMAP
0700
0D80
0000
0F00
39C0
60C0
4040
C040
8040
8040
80C0
80C0
C180
6300
3E00
0000
0000
1800
1000
ENDCHAR
STARTCHAR 1ED9
ENCODING 7897
SWIDTH 540 0
DWIDTH 9 0
BBX 9 16 1 -4
BITMAP
0E00
1B00
0000
1E00
3300
6180
4180
C180
C100
C300
6600
3C00
0000
0000
3000
1000
ENDCHAR
STARTCHAR 1EDA
ENCODING 7898
SWIDTH 720 0
DWIDTH 12 0
BBX 11 16 2 0
BITMAP
0080
0100
0200
0060
0FC0
39C0
60C0
4040
C040
8040
8040
80C0
80C0
C180
6300
3E00
ENDCHAR
STARTCHAR 1EDB
ENCODING 7899
SWIDTH 540 0
DWIDTH 9 0
BBX 10 13 1 0
BITMAP
0100
0200
0600
0040
1F80
3300
6180
4180
C180
C100
C300
6600
3C00
ENDCHAR
STARTCHAR 1EDC
ENCODING 7900
SWIDTH 720 0
DWIDTH 12 0
BBX 11 16 2 0
BITMAP
0C00
0400
0600
0060
0FC0
39C0
60C0
4040
C040
8040
8040
80C0
80C0
C180
6300
3E00
ENDCHAR
STARTCHAR 1EDD
ENCODING 7901
SWIDTH 540 0
DWIDTH 9 0
BBX 10 13 1 0
BITMAP
0800
0800
0400
0040
1F80
3300
6180
4180
C180
C100
C300
6600
3C00
ENDCHAR
STARTCHAR 1EDE
ENCODING 7902
SWIDTH 720 0
DWIDTH 12 0
BBX 11 16 2 0
BITMAP
0700
0100
0100
0260
0FC0
39C0
60C0
4040
C040
8040
8040
80C0
80C0
C180
6300
3E00
ENDCHAR
STARTCHAR 1EDF
ENCODING 7903
SWIDTH 540 0
DWIDTH 9 0
BBX 10 13 1 0
BITMAP
0E00
0200
0600
0040
1F80
3300
6180
4180
C180
C100
C300
6600
3C00
ENDCHAR
STARTCHAR 1EE0
ENCODING 7904
SWIDTH 720 0
DWIDTH 12 0
BBX 11 15 2 0
BITMAP
0E80
0900
0060
0FC0
39C0
60C0
4040
C040
8040
8040
80C0
80C0
C180
6300
3E00
ENDCHAR
STARTCHAR 1EE1
ENCODING 7905
SWIDTH 540 0
DWIDTH 9 0
BBX 10 12 1 0
BITMAP
1F00
0000
0040
1F80
3300
6180
4180
C180
C100
C300
6600
3C00
ENDCHAR
STARTCHAR 1EE2
ENCODING 7906
SWIDTH 720 0
DWIDTH 12 0
BBX 11 17 2 -4
BITMAP
0060
0FC0
39C0
60C0
4040
C040
8040
8040
80C0
80C0
C180
6300
3E00
0000
0000
1800
1000
ENDCHAR
STARTCHAR 1EE3
ENCODING 7907
SWIDTH 540 0
DWIDTH 9 0
BBX 10 14 1 -4
BITMAP
0040
1F80
3300
6180
4180
C180
C100
C300
6600
3C00
0000
0000
3000
1000
ENDCHAR
STARTCHAR 1EE4
ENCODING 7908
SWIDTH 660 0
DWIDTH 11 0
BBX 10 16 2 -4
BITMAP
4040
4040
4040
40C0
C0C0
C080
8080
8080
8180
C100
E700
7C00
0000
0000
3000
1000
ENDCHAR
STARTCHAR 1EE5
ENCODING 7909
SWIDTH 600 0
DWIDTH 10 0
BBX 8 13 2 -4
BITMAP
41
C1
C1
C3
83
82
82
CE
76
00
00
20
20
ENDCHAR
STARTCHAR 1EE6
ENCODING 7910
SWIDTH 660 0
DWIDTH 11 0
BBX 10 16 2 0
BITMAP
0700
0100
0200
0000
4040
4040
4040
40C0
C0C0
C080
8080
8080
8180
C100
E700
7C00
ENDCHAR
STARTCHAR 1EE7
ENCODING 7911
SWIDTH 600 0
DWIDTH 10 0
BBX 8 13 2 0
BITMAP
0C
16
0C
00
41
C1
C1
C3
83
82
82
CE
76
ENDCHAR
STARTCHAR 1EE8
ENCODING 7912
SWIDTH 660 0
DWIDTH 11 0
BBX 12 16 2 0
BITMAP
0180
0100
0200
0010
4070
4040
4040
40C0
C0C0
C080
8080
8080
8180
C100
E700
7C00
ENDCHAR
STARTCHAR 1EE9
ENCODING 7913
SWIDTH 600 0
DWIDTH 10 0
BBX 10 13 2 0
BITMAP
0200
0400
0C00
0040
41C0
C100
C100
C300
8300
8200
8200
CE00
7600
ENDCHAR
STARTCHAR 1EEA
ENCODING 7914
SWIDTH 660 0
DWIDTH 11 0
BBX 12 16 2 0
BITMAP
0800
0C00
0400
0010
4070
4040
4040
40C0
C0C0
C080
8080
8080
8180
C100
E700
7C00
ENDCHAR
STARTCHAR 1EEB
ENCODING 7915
SWIDTH 600 0
DWIDTH 10 0
BBX 10 13 2 0
BITMAP
3000
1000
1000
0040
41C0
C100
C100
C300
8300
8200
8200
CE00
7600
ENDCHAR
STARTCHAR 1EEC
ENCODING 7916
SWIDTH 660 0
DWIDTH 11 0
BBX 12 16 2 0
BITMAP
0700
0100
0200
0010
4070
4040
4040
40C0
C0C0
C080
8080
8080
8180
C100
E700
7C00
ENDCHAR
STARTCHAR 1EED
ENCODING 7917
SWIDTH 600 0
DWIDTH 10 0
BBX 10 13 2 0
BITMAP
0C00
1600
0C00
0040
41C0
C100
C100
C300
8300
8200
8200
CE00
7600
ENDCHAR
STARTCHAR 1EEE
ENCODING 7918
SWIDTH 660 0
DWIDTH 11 0
BBX 12 15 2 0
BITMAP
0E80
1100
0010
4070
4040
4040
40C0
C0C0
C080
8080
8080
8180
C100
E700
7C00
ENDCHAR
STARTCHAR 1EEF
ENCODING 7919
SWIDTH 600 0
DWIDTH 10 0
BBX 10 12 2 0
BITMAP
3E00
0000
0040
41C0
C100
C100
C300
8300
8200
8200
CE00
7600
ENDCHAR
STARTCHAR 1EF0
ENCODING 7920
SWIDTH 660 0
DWIDTH 11 0
BBX 12 17 2 -4
BITMAP
0010
4070
4040
4040
40C0
C0C0
C080
8080
8080
8180
C100
E700
7C00
0000
0000
3000
1000
ENDCHAR
STARTCHAR 1EF1
ENCODING 7921
SWIDTH 600 0
DWIDTH 10 0
BBX 10 14 2 -4
BITMAP
0040
41C0
C100
C100
C300
8300
8200
8200
CE00
7600
0000
0000
6000
4000
ENDCHAR
STARTCHAR 1EF2
ENCODING 7922
SWIDTH 600 0
DWIDTH 10 0
BBX 8 16 3 0
BITMAP
30
10
18
00
81
C3
C2
44
4C
68
30
30
20
20
20
60
ENDCHAR
STARTCHAR 1EF3
ENCODING 7923
SWIDTH 480 0
DWIDTH 8 0
BBX 10 16 0 -3
BITMAP
0800
0C00
0400
0000
20C0
2080
3100
3300
1200
1600
1400
1C00
1800
1000
3000
E000
ENDCHAR
STARTCHAR 1EF4
ENCODING 7924
SWIDTH 600 0
DWIDTH 10 0
BBX 8 16 3 -4
BITMAP
81
C3
C2
44
4C
68
30
30
20
20
20
60
00
00
60
40
ENDCHAR
STARTCHAR 1EF5
ENCODING 7925
SWIDTH 480 0
DWIDTH 8 0
BBX 10 13 0 -4
BITMAP
20C0
2080
3100
3300
1200
1600
1400
1C00
1800
1000
3000
E600
0600
ENDCHAR
STARTCHAR 1EF6
ENCODING 7926
SWIDTH 600 0
DWIDTH 10 0
BBX 8 16 3 0
BITMAP
1C
04
0C
00
81
C3
C2
44
4C
68
30
30
20
20
20
60
ENDCHAR
STARTCHAR 1EF7
ENCODING 7927
SWIDTH 480 0
DWIDTH 8 0
BBX 10 16 0 -3
BITMAP
0700
0100
0200
0000
20C0
2080
3100
3300
1200
1600
1400
1C00
1800
1000
3000
E000
ENDCHAR
STARTCHAR 1EF8
ENCODING 7928
SWIDTH 600 0
DWIDTH 10 0
BBX 8 15 3 0
BITMAP
3A
24
00
81
C3
C2
44
4C
68
30
30
20
20
20
60
ENDCHAR
STARTCHAR 1EF9
ENCODING 7929
SWIDTH 480 0
DWIDTH 8 0
BBX 10 15 0 -3
BITMAP
0F80
0000
0000
20C0
2080
3100
3300
1200
1600
1400
1C00
1800
1000
3000
E000
ENDCHAR
STARTCHAR 2013
ENCODING 8211
SWIDTH 600 0
DWIDTH 10 0
BBX 7 1 3 5
BITMAP
FE
ENDCHAR
STARTCHAR 2014
ENCODING 8212
SWIDTH 720 0
DWIDTH 12 0
BBX 9 1 3 5
BITMAP
FF80
ENDCHAR
STARTCHAR 2018
ENCODING 8216
SWIDTH 240 0
DWIDTH 4 0
BBX 2 4 2 8
BITMAP
40
80
C0
C0
ENDCHAR
STARTCHAR 2019
ENCODING 8217
SWIDTH 240 0
DWIDTH 4 0
BBX 3 4 1 8
BITMAP
E0
40
40
80
ENDCHAR
STARTCHAR 201A
ENCODING 8218
SWIDTH 240 0
DWIDTH 4 0
BBX 3 5 1 -3
BITMAP
40
E0
40
40
80
ENDCHAR
STARTCHAR 201C
ENCODING 8220
SWIDTH 540 0
DWIDTH 9 0
BBX 5 4 3 8
BITMAP
C8
90
D8
D8
ENDCHAR
STARTCHAR 201D
ENCODING 8221
SWIDTH 540 0
DWIDTH 9 0
BBX 6 4 3 8
BITMAP
DC
48
48
90
ENDCHAR
STARTCHAR 201E
ENCODING 8222
SWIDTH 480 0
DWIDTH 8 0
BBX 6 5 1 -3
BITMAP
44
EC
44
44
88
ENDCHAR
STARTCHAR 2020
ENCODING 8224
SWIDTH 540 0
DWIDTH 9 0
BBX 7 16 3 -4
BITMAP
10
10
10
FE
FC
30
20
20
20
20
60
60
40
40
40
40
ENDCHAR
STARTCHAR 2021
ENCODING 8225
SWIDTH 540 0
DWIDTH 9 0
BBX 9 16 1 -4
BITMAP
0400
0400
0400
3F80
3F00
0C00
0800
0800
0800
0800
1800
1800
FE00
1000
1000
1000
ENDCHAR
STARTCHAR 2022
ENCODING 8226
SWIDTH 360 0
DWIDTH 6 0
BBX 3 3 3 5
BITMAP
C0
E0
C0
ENDCHAR
STARTCHAR 2026
ENCODING 8230
SWIDTH 780 0
DWIDTH 13 0
BBX 11 2 1 0
BITMAP
4460
C460
ENDCHAR
STARTCHAR 2030
ENCODING 8240
SWIDTH 1140 0
DWIDTH 19 0
BBX 18 12 2 0
BITMAP
304000
48C000
888000
910000
630000
020000
040000
0C6180
08B240
111440
312480
61E380
ENDCHAR
STARTCHAR 2039
ENCODING 8249
SWIDTH 360 0
DWIDTH 6 0
BBX 5 7 2 2
BITMAP
18
30
40
80
C0
40
20
ENDCHAR
STARTCHAR 203A
ENCODING 8250
SWIDTH 360 0
DWIDTH 6 0
BBX 4 7 2 2
BITMAP
C0
60
20
10
30
40
80
ENDCHAR
STARTCHAR 2044
ENCODING 8260
SWIDTH 420 0
DWIDTH 7 0
BBX 10 12 0 0
BITMAP
0040
0080
0100
0300
0600
0400
0800
1800
3000
2000
4000
8000
ENDCHAR
STARTCHAR 2070
ENCODING 8304
SWIDTH 300 0
DWIDTH 5 0
BBX 5 7 2 6
BITMAP
30
48
88
88
90
90
60
ENDCHAR
STARTCHAR 2074
ENCODING 8308
SWIDTH 300 0
DWIDTH 5 0
BBX 5 7 2 6
BITMAP
10
30
50
90
F8
20
20
ENDCHAR
STARTCHAR 2075
ENCODING 8309
SWIDTH 300 0
DWIDTH 5 0
BBX 5 7 2 6
BITMAP
78
80
A0
D0
10
90
60
ENDCHAR
STARTCHAR 2076
ENCODING 8310
SWIDTH 300 0
DWIDTH 5 0
BBX 4 7 2 6
BITMAP
20
20
40
B0
90
90
60
ENDCHAR
STARTCHAR 2077
ENCODING 8311
SWIDTH 240 0
DWIDTH 4 0
BBX 5 7 2 6
BITMAP
78
10
10
20
20
40
80
ENDCHAR
STARTCHAR 2078
ENCODING 8312
SWIDTH 300 0
DWIDTH 5 0
BBX 5 7 2 6
BITMAP
30
48
88
70
90
90
60
ENDCHAR
STARTCHAR 2079
ENCODING 8313
SWIDTH 300 0
DWIDTH 5 0
BBX 5 7 2 6
BITMAP
30
48
88
D0
30
20
40
ENDCHAR
STARTCHAR 2080
ENCODING 8320
SWIDTH 300 0
DWIDTH 5 0
BBX 5 6 0 -4
BITMAP
78
48
88
88
90
70
ENDCHAR
STARTCHAR 2081
ENCODING 8321
SWIDTH 240 0
DWIDTH 4 0
BBX 3 6 0 -4
BITMAP
60
A0
20
40
40
E0
ENDCHAR
STARTCHAR 2082
ENCODING 8322
SWIDTH 300 0
DWIDTH 5 0
BBX 5 6 0 -4
BITMAP
70
48
10
20
40
F0
ENDCHAR
STARTCHAR 2083
ENCODING 8323
SWIDTH 300 0
DWIDTH 5 0
BBX 5 6 0 -4
BITMAP
78
08
10
30
90
F0
ENDCHAR
STARTCHAR 2084
ENCODING 8324
SWIDTH 300 0
DWIDTH 5 0
BBX 5 6 0 -4
BITMAP
10
30
50
90
F8
10
ENDCHAR
STARTCHAR 2085
ENCODING 8325
SWIDTH 300 0
DWIDTH 5 0
BBX 5 6 0 -4
BITMAP
78
40
F0
10
90
F0
ENDCHAR
STARTCHAR 2086
ENCODING 8326
SWIDTH 300 0
DWIDTH 5 0
BBX 4 6 0 -4
BITMAP
20
40
70
90
90
F0
ENDCHAR
STARTCHAR 2087
ENCODING 8327
SWIDTH 240 0
DWIDTH 4 0
BBX 4 6 1 -4
BITMAP
F0
20
20
40
80
80
ENDCHAR
STARTCHAR 2088
ENCODING 8328
SWIDTH 300 0
DWIDTH 5 0
BBX 5 6 0 -4
BITMAP
78
48
50
B0
88
F0
ENDCHAR
STARTCHAR 2089
ENCODING 8329
SWIDTH 300 0
DWIDTH 5 0
BBX 5 6 0 -4
BITMAP
78
48
88
70
20
20
ENDCHAR
STARTCHAR 20AB
ENCODING 8363
SWIDTH 540 0
DWIDTH 9 0
BBX 10 14 2 0
BITMAP
0180
0180
07C0
1900
7D00
C300
8300
8300
8300
C600
FA00
0000
0000
FE00
ENDCHAR
STARTCHAR 20AC
ENCODING 8364
SWIDTH 660 0
DWIDTH 11 0
BBX 11 12 1 0
BITMAP
0300
0FC0
1860
1020
3000
6C00
2000
FC00
2040
20C0
3180
1F00
ENDCHAR
STARTCHAR 2122
ENCODING 8482
SWIDTH 360 0
DWIDTH 6 0
BBX 6 3 2 9
BITMAP
F4
6C
64
ENDCHAR
STARTCHAR 215B
ENCODING 8539
SWIDTH 840 0
DWIDTH 14 0
BBX 13 12 2 0
BITMAP
2020
E060
A040
4080
4100
E300
0238
0448
0850
1870
3088
2070
ENDCHAR
STARTCHAR 215C
ENCODING 8540
SWIDTH 840 0
DWIDTH 14 0
BBX 12 12 2 0
BITMAP
3020
5840
10C0
3080
1100
F200
0670
0C90
0890
10F0
2090
60E0
ENDCHAR
STARTCHAR 215D
ENCODING 8541
SWIDTH 840 0
DWIDTH 14 0
BBX 13 12 2 0
BITMAP
7020
4060
B040
D080
9100
E300
0630
0448
0850
1070
3088
6070
ENDCHAR
STARTCHAR 215E
ENCODING 8542
SWIDTH 900 0
DWIDTH 15 0
BBX 13 12 2 0
BITMAP
7820
1060
10C0
2080
4100
4300
8638
0448
0858
1078
3088
6070
ENDCHAR
STARTCHAR 2212
ENCODING 8722
SWIDTH 600 0
DWIDTH 10 0
BBX 6 1 3 5
BITMAP
FC
ENDCHAR
STARTCHAR 2215
ENCODING 8725
SWIDTH 480 0
DWIDTH 8 0
BBX 9 12 1 0
BITMAP
0080
0100
0300
0200
0400
0C00
0800
1000
3000
2000
4000
C000
ENDCHAR
STARTCHAR 2248
ENCODING 8776
SWIDTH 540 0
DWIDTH 9 0
BBX 7 5 2 3
BITMAP
32
4C
00
00
FC
ENDCHAR
STARTCHAR 2260
ENCODING 8800
SWIDTH 720 0
DWIDTH 12 0
BBX 8 10 3 0
BITMAP
03
02
FF
FF
18
10
FF
60
C0
80
ENDCHAR
STARTCHAR 2264
ENCODING 8804
SWIDTH 600 0
DWIDTH 10 0
BBX 8 10 2 0
BITMAP
01
06
18
60
30
1C
06
00
00
FE
ENDCHAR
STARTCHAR 2265
ENCODING 8805
SWIDTH 600 0
DWIDTH 10 0
BBX 7 10 2 0
BITMAP
20
38
0C
02
0E
38
60
00
00
FE
ENDCHAR
ENDFONT
